<svg xmlns="http://www.w3.org/2000/svg" width="70" height="70" viewBox="0 0 70 70">
  <g id="Group_1" data-name="Group 1" transform="translate(-1102 -995)">
    <path id="Rectangle_804_copy_6" data-name="Rectangle 804 copy 6" d="M0,0H60A10,10,0,0,1,70,10V70a0,0,0,0,1,0,0H10A10,10,0,0,1,0,60V0A0,0,0,0,1,0,0Z" transform="translate(1102 995)" fill="#fff"/>
    <g id="Pinned_copy" data-name="Pinned copy" transform="translate(1120 1008)">
      <g id="Group_3" data-name="Group 3">
        <g id="Ellipse_2_copy" data-name="Ellipse 2 copy" fill="none">
          <path d="M13.772,1.286c2.354,2.331,1.476,7.042-1.963,10.522S3.675,16.221,1.32,13.89-.155,6.848,3.283,3.368,11.417-1.045,13.772,1.286Z" stroke="none"/>
          <path d="M 10.35380172729492 2.257818222045898 C 8.624154090881348 2.257818222045898 6.529624938964844 3.290465354919434 4.887565612792969 4.952759742736816 C 3.557506561279297 6.299054145812988 2.631330490112305 7.946818828582764 2.346566200256348 9.47352409362793 C 2.213801383972168 10.18558311462402 2.109977722167969 11.4979362487793 2.907154083251953 12.28705406188965 C 3.329859733581543 12.70552444458008 3.945977210998535 12.91775989532471 4.738330841064453 12.91775989532471 C 6.467918395996094 12.91775989532471 8.562507629394531 11.88511276245117 10.20468330383301 10.22287750244141 C 11.53474235534668 8.876465797424316 12.46091842651367 7.228701114654541 12.74568367004395 5.702054023742676 C 12.87850666046143 4.990054130554199 12.98227119445801 3.677700996398926 12.18521308898926 2.888642311096191 C 11.76238918304443 2.470053672790527 11.14621257781982 2.257818222045898 10.35380172729492 2.257818222045898 M 10.35378742218018 0.002407073974609375 C 11.69406986236572 0.002407073974609375 12.89514923095703 0.4178028106689453 13.77191925048828 1.285700798034668 C 16.1263313293457 3.61646556854248 15.24756622314453 8.327406883239746 11.80921268463135 11.80793571472168 C 9.651181221008301 13.99240207672119 6.997320175170898 15.17319583892822 4.738350868225098 15.17319583892822 C 3.398082733154297 15.17319583892822 2.197114944458008 14.75783443450928 1.320389747619629 13.88993644714355 C -1.034023284912109 11.55917167663574 -0.1553754806518555 6.848171234130859 3.283036231994629 3.367642402648926 C 5.441030502319336 1.183139801025391 8.094793319702148 0.002407073974609375 10.35378742218018 0.002407073974609375 Z" stroke="none" fill="#525260"/>
        </g>
        <path id="Shape_1_copy" data-name="Shape 1 copy" d="M13.879,8.2s3.26,4.063,5.2,4.881a24.681,24.681,0,0,1,3.643,1.569c.623.465,2.037,2.005-1.561,6.624" fill="none" stroke="#525260" stroke-linecap="round" stroke-width="2.255"/>
        <path id="Shape_2_copy" data-name="Shape 2 copy" d="M8.154,13.776A11.9,11.9,0,0,1,14.4,22.491" fill="none" stroke="#525260" stroke-linecap="round" stroke-width="2.255"/>
        <path id="Shape_3_copy" data-name="Shape 3 copy" d="M12.145,18.133s-5.186,4.922,0,10.284,14.747-5.055,14.747-5.055A11.478,11.478,0,0,0,29.667,15c-.506-4.882-5.955-5.45-7.807-4.532" fill="none" stroke="#525260" stroke-linecap="round" stroke-width="2.255"/>
        <line id="Shape_4_copy" data-name="Shape 4 copy" x2="9.715" y2="9.762" transform="translate(25.157 25.106)" fill="none" stroke="#525260" stroke-linecap="round" stroke-width="2.255"/>
      </g>
    </g>
  </g>
</svg>
