<svg xmlns="http://www.w3.org/2000/svg" width="40.513" height="49.99" viewBox="0 0 40.513 49.99">
  <path id="Delete" d="M6932.34,217.274a11.207,11.207,0,1,1,11.207,11.22A11.227,11.227,0,0,1,6932.34,217.274Zm14.923,6.112,2.392-2.393-3.716-3.719,3.716-3.719-2.392-2.395-3.716,3.719-3.714-3.719-2.391,2.395,3.714,3.719-3.714,3.719,2.391,2.393,3.714-3.719Zm-28.511,2.285-2.143-32.725h26.827l-.637,9.741a14.6,14.6,0,0,0-11.18,22.984Zm-4.51-36.109v-6.77h9.4V178.5H6936.4v4.288h9.4v6.77Zm12.78-6.77h6v-.9h-6Z" transform="translate(-6914.242 -178.503)" fill="#fff"/>
</svg>
