<svg xmlns="http://www.w3.org/2000/svg" width="45.861" height="36.032" viewBox="0 0 45.861 36.032">
  <g id="Email" transform="translate(-2441.069 -1174.484)" opacity="0.6">
    <g id="Email-2" data-name="Email" transform="translate(2267.915 996.225)">
      <g id="Group_21" data-name="Group 21">
        <path id="Path_760" data-name="Path 760" d="M177.557,189.367q.87.614,5.245,3.646t6.706,4.67c.17.119.534.38,1.088.781s1.015.725,1.382.972.81.525,1.331.833a7.718,7.718,0,0,0,1.471.69,4.078,4.078,0,0,0,1.281.23h.051a4.078,4.078,0,0,0,1.281-.23,7.838,7.838,0,0,0,1.471-.69c.52-.308.963-.584,1.331-.833s.827-.571,1.381-.972.919-.661,1.089-.781q2.354-1.638,11.977-8.318a12.146,12.146,0,0,0,3.121-3.147,6.763,6.763,0,0,0,1.255-3.864,4.129,4.129,0,0,0-4.1-4.095H177.25a3.655,3.655,0,0,0-3.034,1.331,5.167,5.167,0,0,0-1.061,3.327,5.978,5.978,0,0,0,1.408,3.494,12.688,12.688,0,0,0,2.994,2.955Zm0,0"/>
        <path id="Path_761" data-name="Path 761" d="M216.456,192.1q-8.393,5.68-12.744,8.828-1.458,1.077-2.368,1.676a14.412,14.412,0,0,1-2.417,1.229,7.363,7.363,0,0,1-2.816.627h-.051a7.357,7.357,0,0,1-2.816-.627,14.5,14.5,0,0,1-2.419-1.229q-.906-.6-2.366-1.676Q185,198.4,175.739,192.1a13.575,13.575,0,0,1-2.584-2.227V210.2a4.1,4.1,0,0,0,4.1,4.095h37.67a4.106,4.106,0,0,0,4.1-4.095V189.878a14.172,14.172,0,0,1-2.56,2.227Zm0,0"/>
      </g>
    </g>
    <path id="Color_Overlay" data-name="Color Overlay" d="M2445.165,1210.516a4.105,4.105,0,0,1-4.1-4.095V1186.1a13.616,13.616,0,0,0,2.585,2.228q9.264,6.294,12.72,8.828,1.458,1.076,2.366,1.676a14.462,14.462,0,0,0,2.419,1.229,7.349,7.349,0,0,0,2.816.627h.05a7.357,7.357,0,0,0,2.816-.627,14.384,14.384,0,0,0,2.417-1.229q.91-.6,2.369-1.676,4.349-3.148,12.744-8.828a14.191,14.191,0,0,0,2.56-2.228v20.319a4.105,4.105,0,0,1-4.095,4.095Zm18.81-13.1a4.074,4.074,0,0,1-1.282-.23,7.688,7.688,0,0,1-1.47-.69c-.521-.308-.965-.584-1.331-.833s-.827-.571-1.382-.972-.918-.661-1.088-.78q-2.327-1.636-6.705-4.671t-5.246-3.646a12.682,12.682,0,0,1-2.993-2.955,5.983,5.983,0,0,1-1.408-3.495,5.166,5.166,0,0,1,1.062-3.326,3.653,3.653,0,0,1,3.034-1.331h37.67a4.13,4.13,0,0,1,4.095,4.095,6.761,6.761,0,0,1-1.255,3.864,12.16,12.16,0,0,1-3.121,3.147q-9.624,6.681-11.977,8.318-.255.178-1.089.78t-1.381.972c-.368.248-.811.525-1.331.833a7.787,7.787,0,0,1-1.471.69,4.067,4.067,0,0,1-1.281.23Z" fill="#fff"/>
  </g>
</svg>
