<svg xmlns="http://www.w3.org/2000/svg" viewBox="0 0 91.17 100.29"><defs><style>.cls-1{fill:#fff;}</style></defs><title>Generate_10</title><g id="Layer_2" data-name="Layer 2"><g id="Capa_1" data-name="Capa 1"><path class="cls-1" d="M86.61,54.7a4.56,4.56,0,0,0-4.56,4.56A13.68,13.68,0,0,1,68.38,72.93H31.91V59.26A4.56,4.56,0,0,0,24.5,55.7L1.71,73.93a4.56,4.56,0,0,0,0,7.12L24.5,99.29a4.62,4.62,0,0,0,2.85,1,4.49,4.49,0,0,0,2-.46,4.55,4.55,0,0,0,2.58-4.1V82.05H68.38A22.81,22.81,0,0,0,91.17,59.26a4.56,4.56,0,0,0-4.56-4.56"/><path class="cls-1" d="M4.56,45.58A4.56,4.56,0,0,0,9.12,41,13.69,13.69,0,0,1,22.79,27.35H59.26V41a4.55,4.55,0,0,0,2.58,4.11,4.59,4.59,0,0,0,4.83-.54L89.46,26.35a4.56,4.56,0,0,0,0-7.12L66.67,1a4.56,4.56,0,0,0-7.41,3.56V18.23H22.79A22.82,22.82,0,0,0,0,41a4.56,4.56,0,0,0,4.56,4.56"/></g></g></svg>