<svg xmlns="http://www.w3.org/2000/svg" viewBox="0 0 46 100"><defs><style>.cls-1{fill:#fff;}</style></defs><title>Asset 120</title><g id="Layer_2" data-name="Layer 2"><g id="Capa_1" data-name="Capa 1"><path class="cls-1" d="M35.16,0c6.7,0,10.05,4.57,10.05,9.79,0,6.52-5.82,12.55-13.4,12.55-6.34,0-10-3.75-9.86-9.94A12.85,12.85,0,0,1,35.16,0ZM14.54,100c-5.28,0-9.16-3.26-5.46-17.61l6.07-25.46c1.06-4.08,1.23-5.71,0-5.71-1.59,0-8.45,2.82-12.51,5.59L0,52.41C12.86,41.48,27.66,35.07,34,35.07c5.29,0,6.17,6.36,3.53,16.15L30.58,78c-1.23,4.73-.7,6.36.53,6.36,1.58,0,6.78-2,11.89-6l3,4.08C33.49,95.1,19.83,100,14.54,100Z"/></g></g></svg>