<svg xmlns="http://www.w3.org/2000/svg" viewBox="0 0 384 512"><defs><style>.cls-1{fill:#fff;}</style></defs><title>Invoice0</title><g id="Layer_2" data-name="Layer 2"><g id="Capa_1" data-name="Capa 1"><path class="cls-1" d="M380.86,109.78,274.22,3.14A10.62,10.62,0,0,0,266.67,0h-224A42.72,42.72,0,0,0,0,42.67V469.33A42.72,42.72,0,0,0,42.67,512H341.33A42.72,42.72,0,0,0,384,469.33v-352A10.62,10.62,0,0,0,380.86,109.78ZM96,149.33a31.92,31.92,0,0,1-10.67-62v-2a10.67,10.67,0,0,1,21.34,0h10.66a10.67,10.67,0,0,1,0,21.34H96A10.67,10.67,0,1,0,96,128a31.92,31.92,0,0,1,10.67,62v2a10.67,10.67,0,0,1-21.34,0H74.67a10.67,10.67,0,1,1,0-21.33H96a10.67,10.67,0,1,0,0-21.34ZM202.67,448h-128a10.67,10.67,0,1,1,0-21.33h128a10.67,10.67,0,0,1,0,21.33Zm106.66-64H74.67a10.67,10.67,0,1,1,0-21.33H309.33a10.67,10.67,0,1,1,0,21.33Zm0-64H74.67a10.67,10.67,0,1,1,0-21.33H309.33a10.67,10.67,0,1,1,0,21.33Zm0-64H74.67a10.67,10.67,0,1,1,0-21.33H309.33a10.67,10.67,0,1,1,0,21.33Zm0-64h-128a10.67,10.67,0,0,1,0-21.33h128a10.67,10.67,0,1,1,0,21.33Zm-10.66-85.33a21.37,21.37,0,0,1-21.34-21.34V36.42l70.25,70.25Z"/></g></g></svg>