<svg xmlns="http://www.w3.org/2000/svg" width="520" height="520" viewBox="0 0 520 520">
  <g id="logo" transform="translate(-1460 -220)">
    <circle id="Ellipse_1_copy" data-name="Ellipse 1 copy" cx="260" cy="260" r="260" transform="translate(1460 220)" fill="#fff" opacity="0.102"/>
    <circle id="Ellipse_1" data-name="Ellipse 1" cx="225" cy="225" r="225" transform="translate(1495 255)" fill="#fff" opacity="0.102"/>
    <circle id="Ellipse_1_copy_2" data-name="Ellipse 1 copy 2" cx="190" cy="190" r="190" transform="translate(1530 290)" fill="#fff" opacity="0.102"/>
    <g id="Logo-2" data-name="Logo" transform="translate(1351.417 215.8)">
      <g id="Group_11" data-name="Group 11">
        <path id="Path_378" data-name="Path 378" d="M368.463,150.253,281.39,235.506V344.733l21.381,15.987V328.751H331.1v45.287l22.27,4.441v-119h28.4V380.3l23.079-3.554V302.994h29.3v56.765l22.188-15.981V233.726ZM332.877,307.435H302.771V248.824l30.105-29.3Zm49.783-69.268H354.254V197.32l15.237-14.209L382.66,197.32Zm51.487,42.626h-29.3V219.519l29.3,31.08Z" fill="#fff"/>
        <g id="L38PEa">
          <g id="Group_10" data-name="Group 10">
            <path id="Path_379" data-name="Path 379" d="M368.653,414.184a139.783,139.783,0,0,1-39.088-5.075A150.36,150.36,0,0,1,221.5,293.553a143.564,143.564,0,0,1-2.722-36.3c1.82-34.187,13.606-64.551,35.9-90.539q33.422-38.959,83.892-49.5a137.294,137.294,0,0,1,30.078-2.99v35.832a121.255,121.255,0,0,0-25.614,3.017,112.526,112.526,0,0,0-60.574,36.641c-17.38,20.087-26.477,43.554-27.764,70.042a102.272,102.272,0,0,0,2.578,28.943c9.686,40.3,33.949,67.963,72.475,83.037,12.465,4.874,25.552,6.784,38.9,6.995Z" fill="#29a8ab" fill-rule="evenodd"/>
            <path id="Path_380" data-name="Path 380" d="M368.653,414.184V378.725a108.064,108.064,0,0,0,20.915-1.968q63.613-13.4,86.906-74.144c4.732-12.316,6.552-25.241,6.659-38.411h35.433a145.76,145.76,0,0,1-6.274,43.2A150.128,150.128,0,0,1,399.5,411.051,138.6,138.6,0,0,1,368.653,414.184Z" fill="#ca333f" fill-rule="evenodd"/>
            <path id="Path_381" data-name="Path 381" d="M518.565,264.2H483.133a116.42,116.42,0,0,0-1.7-19.213q-8.924-48.079-49.284-75.726a129.708,129.708,0,0,0-19.47-10.556c.183-.615.313-1.243.552-1.83,2.813-6.823,5.7-13.619,8.452-20.466,1.458-3.624,3.327-7.088,4.289-10.906a150.4,150.4,0,0,1,89.977,110.488A136.677,136.677,0,0,1,518.565,264.2Z" fill="#ffa32e" fill-rule="evenodd"/>
            <path id="Path_382" data-name="Path 382" d="M425.975,125.5c-.962,3.818-2.831,7.282-4.289,10.906-2.755,6.847-5.638,13.643-8.452,20.466-.239.587-.369,1.216-.552,1.83-2.285-.809-4.571-1.632-6.863-2.426a118.761,118.761,0,0,0-37.165-6.23V114.219A142.566,142.566,0,0,1,408,119.354,133.483,133.483,0,0,1,425.975,125.5Z" fill="#b5be1f" fill-rule="evenodd"/>
          </g>
        </g>
      </g>
    </g>
  </g>
</svg>
