<svg xmlns="http://www.w3.org/2000/svg" width="83" height="60" viewBox="0 0 83 60">
  <g id="Resset" transform="translate(-4339 -3300)">
    <g id="Resset-2" data-name="Resset" transform="translate(4339 3288.747)">
      <path id="Path_1" data-name="Path 1" d="M11.318,41.253H0l15.092,15,15.093-15H18.867A22.635,22.635,0,0,1,41.5,18.752a24.4,24.4,0,0,1,10.563,2.626l5.657-5.623a33.869,33.869,0,0,0-16.22-4.5A30.175,30.175,0,0,0,11.318,41.253Zm52.815,0A22.635,22.635,0,0,1,41.5,63.754a24.4,24.4,0,0,1-10.563-2.626L25.28,66.751a33.869,33.869,0,0,0,16.22,4.5,30.18,30.18,0,0,0,30.182-30H83l-15.092-15-15.093,15Z" fill="#161c27"/>
    </g>
    <path id="Color_Overlay" data-name="Color Overlay" d="M4364.28,3355.5l5.658-5.623a24.4,24.4,0,0,0,10.563,2.627,22.636,22.636,0,0,0,22.632-22.5h-11.317l15.093-15L4422,3330h-11.319a30.18,30.18,0,0,1-30.181,30A33.878,33.878,0,0,1,4364.28,3355.5ZM4339,3330h11.318a30.174,30.174,0,0,1,30.183-30,33.877,33.877,0,0,1,16.22,4.5l-5.658,5.623a24.41,24.41,0,0,0-10.562-2.626,22.636,22.636,0,0,0-22.634,22.5h11.319l-15.093,15Z" fill="#fff"/>
  </g>
</svg>
