<svg id="Capa_1" data-name="Capa 1" xmlns="http://www.w3.org/2000/svg" viewBox="0 0 512 270"><defs><style>.cls-1{fill:#fff;}</style></defs><title>View</title><path class="cls-1" d="M525.18,262C520.61,256.9,410.68,137,273,137S25.39,256.9,20.82,262a15,15,0,0,0,0,20C25.39,287.1,135.32,407,273,407S520.61,287.1,525.18,282A15,15,0,0,0,525.18,262ZM378,272A105,105,0,1,1,273,167,105.13,105.13,0,0,1,378,272Z" transform="translate(-17 -137)"/><path class="cls-1" d="M288,242a44.84,44.84,0,0,1,18.89-36.53A74.1,74.1,0,0,0,273,197a75,75,0,1,0,73.72,87.64C316.52,294.37,288,271.52,288,242Z" transform="translate(-17 -137)"/></svg>