<?xml version="1.0" encoding="utf-8"?>
<!-- Generator: Adobe Illustrator 23.0.0, SVG Export Plug-In . SVG Version: 6.00 Build 0)  -->
<svg version="1.1" id="Capa_1" xmlns="http://www.w3.org/2000/svg" xmlns:xlink="http://www.w3.org/1999/xlink" x="0px" y="0px"
	 viewBox="0 0 612 612" style="enable-background:new 0 0 612 612;" xml:space="preserve">
<style type="text/css">
	.st0{fill:#FFFFFF;}
</style>
<g>
	<g id="_x38__3_">
		<g>
			<path class="st0" d="M306,0C137,0,0,137,0,306s137,306,306,306s306-137,306-306S475,0,306,0z M306,573.8
				C158.1,573.8,38.3,453.9,38.3,306S158.1,38.3,306,38.3S573.8,158.1,573.8,306S453.9,573.8,306,573.8z M420.8,286.9h-95.6v-95.6
				c0-10.6-8.6-19.1-19.1-19.1s-19.1,8.6-19.1,19.1v95.6h-95.6c-10.6,0-19.1,8.6-19.1,19.1s8.6,19.1,19.1,19.1H287v95.6
				c0,10.6,8.6,19.1,19.1,19.1s19.1-8.6,19.1-19.1v-95.6h95.6c10.6,0,19.1-8.6,19.1-19.1S431.3,286.9,420.8,286.9z"/>
		</g>
	</g>
</g>
</svg>
