<svg xmlns="http://www.w3.org/2000/svg" width="23" height="30" viewBox="0 0 23 30">
  <defs>
    <style>
      .cls-1 {
        fill: #fff;
        fill-rule: evenodd;
      }
    </style>
  </defs>
  <path id="Budget_Icon" data-name="Budget Icon" class="cls-1" d="M2538.32,516.287a0.914,0.914,0,0,0,.7.315,2.4,2.4,0,0,0,.42.037h0a4.657,4.657,0,0,0,1.35-.266,4.067,4.067,0,0,1,1.18-.241h0.01a5.627,5.627,0,0,1,1.69.364c0.24,0.08.5,0.165,0.76,0.23a0.279,0.279,0,0,0,.22-0.024,9.734,9.734,0,0,0,3.13-2.475,6.576,6.576,0,0,0,.95-1.911,2.071,2.071,0,0,0,.02-1.479,1.8,1.8,0,0,0-1.76-.766c-0.18,0-1.28.041-1.58,0.041a5.285,5.285,0,0,1-2.4-.458,7.932,7.932,0,0,1-1.02-.643,6.249,6.249,0,0,0-1.72-.936,1.74,1.74,0,0,0-.52-0.081c-1.22,0-1.95,1.323-2.19,1.757a5.179,5.179,0,0,0-.75,2.458,5.989,5.989,0,0,0,.6,2.373A17.444,17.444,0,0,0,2538.32,516.287Zm1.11,8.856a1.689,1.689,0,0,0,1.52,1.511v-3.217a2.147,2.147,0,0,0-.93.415A1.6,1.6,0,0,0,2539.43,525.143Zm3.6,3.879-0.11-.03v3.421a2.345,2.345,0,0,0,.8-0.44,1.791,1.791,0,0,0,.66-1.359A1.607,1.607,0,0,0,2543.03,529.022Zm8.35-4.34a22.988,22.988,0,0,0-4.72-5.588c-0.5-.467-0.97-0.877-1.46-1.282-0.44-.155-1.34-0.157-1.88-0.33a4.279,4.279,0,0,0-1.55-.306,8.775,8.775,0,0,0-1.41.31,3.792,3.792,0,0,1-1.58.059,6.89,6.89,0,0,1-2.44-1.352,6.18,6.18,0,0,0-2.31-1.143c-0.82-.173-1.17,1.056-0.35,1.229a5.581,5.581,0,0,1,2.07,1.066v0a20.467,20.467,0,0,0-2.6.7,0.639,0.639,0,0,0,.35,1.229,12.977,12.977,0,0,1,2.67-.69,1.862,1.862,0,0,1,.42.034,21.956,21.956,0,0,0-5.29,5.75,7.924,7.924,0,0,0-1,6.468,9.415,9.415,0,0,0,2.12,3.45,10.122,10.122,0,0,0,2.76,2.219,15.22,15.22,0,0,0,6.32,1.482,15.837,15.837,0,0,0,6.82-1.126,7.442,7.442,0,0,0,4.27-4.262C2553.5,529.966,2552.7,527.036,2551.38,524.682Zm-6.32,8.275a4.233,4.233,0,0,1-2.14.832v0.945a0.985,0.985,0,0,1-1.97,0V533.78a4.632,4.632,0,0,1-2.29-.886,2.321,2.321,0,0,1-.99-1.73,0.7,0.7,0,0,1,.71-0.78,1.11,1.11,0,0,1,.87.682,3.013,3.013,0,0,0,1.7,1.355v-3.968l-0.79-.215a3.162,3.162,0,0,1-2.46-2.945,2.966,2.966,0,0,1,1.33-2.588,4.6,4.6,0,0,1,1.92-.673v-0.943a0.985,0.985,0,0,1,1.97,0v1.018a5.421,5.421,0,0,1,1.58.618,2.248,2.248,0,0,1,1.24,1.7,0.729,0.729,0,0,1-.8.731,0.964,0.964,0,0,1-.74-0.53,2.994,2.994,0,0,0-1.28-1.034v3.556l0.63,0.156a3.093,3.093,0,0,1,2.64,3.11A3.128,3.128,0,0,1,2545.06,532.957Z" transform="translate(-2530 -508)"/>
</svg>
