<?xml version="1.0" encoding="utf-8"?>
<!-- Generator: Adobe Illustrator 23.0.0, SVG Export Plug-In . SVG Version: 6.00 Build 0)  -->
<svg version="1.1" id="Capa_1" xmlns="http://www.w3.org/2000/svg" xmlns:xlink="http://www.w3.org/1999/xlink" x="0px" y="0px"
	 viewBox="0 0 298.3 298.3" style="enable-background:new 0 0 298.3 298.3;" xml:space="preserve">
<style type="text/css">
	.st0{fill:#fff;}
</style>
<g>
	<g id="_x32_22._Calender">
		<g>
			<path class="st0" d="M172.7,157L172.7,157c-8.7,0-15.7,7-15.7,15.7c0,8.7,7,15.7,15.7,15.7l0,0c8.7,0,15.7-7,15.7-15.7
				C188.4,164,181.4,157,172.7,157z M125.6,141.3c8.7,0,15.7-7,15.7-15.7c0-8.7-7-15.7-15.7-15.7c-8.7,0-15.7,7-15.7,15.7
				C109.9,134.3,116.9,141.3,125.6,141.3z M172.7,109.9L172.7,109.9c-8.7,0-15.7,7-15.7,15.7c0,8.7,7,15.7,15.7,15.7l0,0
				c8.7,0,15.7-7,15.7-15.7C188.4,116.9,181.4,109.9,172.7,109.9z M188.4,31.4h-78.5v31.4h78.5V31.4z M219.8,141.3
				c8.7,0,15.7-7,15.7-15.7c0-8.7-7-15.7-15.7-15.7c-8.7,0-15.7,7-15.7,15.7C204.1,134.3,211.1,141.3,219.8,141.3z M219.8,188.4
				c8.7,0,15.7-7,15.7-15.7c0-8.7-7-15.7-15.7-15.7c-8.7,0-15.7,7-15.7,15.7C204.1,181.4,211.1,188.4,219.8,188.4z M125.6,188.4
				c8.7,0,15.7-7,15.7-15.7c0-8.7-7-15.7-15.7-15.7c-8.7,0-15.7,7-15.7,15.7C109.9,181.4,116.9,188.4,125.6,188.4z M78.5,235.5
				c8.7,0,15.7-7,15.7-15.7c0-8.7-7-15.7-15.7-15.7c-8.7,0-15.7,7-15.7,15.7C62.8,228.5,69.8,235.5,78.5,235.5z M266.9,31.4h-15.7
				v31.4h15.7v204.1H31.4V62.8h15.7V31.4H31.4C14.1,31.4,0,45.5,0,62.8v204.1c0,17.4,14.1,31.4,31.4,31.4h235.5
				c17.3,0,31.4-14.1,31.4-31.4V62.8C298.3,45.5,284.3,31.4,266.9,31.4z M78.5,188.4c8.7,0,15.7-7,15.7-15.7c0-8.7-7-15.7-15.7-15.7
				c-8.7,0-15.7,7-15.7,15.7C62.8,181.4,69.8,188.4,78.5,188.4z M78.5,141.3c8.7,0,15.7-7,15.7-15.7c0-8.7-7-15.7-15.7-15.7
				c-8.7,0-15.7,7-15.7,15.7C62.8,134.3,69.8,141.3,78.5,141.3z M125.6,235.5c8.7,0,15.7-7,15.7-15.7c0-8.7-7-15.7-15.7-15.7
				c-8.7,0-15.7,7-15.7,15.7C109.9,228.5,116.9,235.5,125.6,235.5z M78.5,62.8c8.7,0,15.7-7,15.7-15.7V15.7C94.2,7,87.2,0,78.5,0
				c-8.7,0-15.7,7-15.7,15.7v31.4C62.8,55.8,69.8,62.8,78.5,62.8z M219.8,62.8c8.7,0,15.7-7,15.7-15.7V15.7c0-8.7-7-15.7-15.7-15.7
				c-8.7,0-15.7,7-15.7,15.7v31.4C204.1,55.8,211.1,62.8,219.8,62.8z"/>
		</g>
	</g>
</g>
</svg>
