<svg xmlns="http://www.w3.org/2000/svg" width="28" height="28" viewBox="0 0 28 28">
  <defs>
    <style>
      .cls-1 {
        fill: #fff;
        fill-rule: evenodd;
      }
    </style>
  </defs>
  <path id="Ellipse_1_copy_2" data-name="Ellipse 1 copy 2" class="cls-1" d="M7425.88,607.1a13.986,13.986,0,0,0-19.79,0,14.014,14.014,0,0,0-.88,18.825,5.355,5.355,0,0,1-2.24,2.486,1.3,1.3,0,0,0-.72,1.373,1.318,1.318,0,0,0,1.1,1.1,7.155,7.155,0,0,0,1.1.082,8.374,8.374,0,0,0,4.93-1.634A13.992,13.992,0,0,0,7425.88,607.1Zm-1.13,18.665a12.387,12.387,0,0,1-15.04,1.93,0.794,0.794,0,0,0-.97.124,0.245,0.245,0,0,0-.07.047,6.824,6.824,0,0,1-4.22,1.5h0a7.8,7.8,0,0,0,2.4-3.191,0.834,0.834,0,0,0,.04-0.515,0.862,0.862,0,0,0-.19-0.45A12.4,12.4,0,1,1,7424.75,625.767Zm-21.88-11.392s2.6-10.5,13.13-10.5,13.12,10.92,13.12,13.125-1.47,13.125-13.12,13.125l-6.83-1.707-0.17-.043s-3.36,3.11-6.13.875a4.7,4.7,0,0,0,3.5-3.5S7402.08,622.88,7402.87,614.375Zm7,0.875a1.75,1.75,0,1,1-1.75,1.75A1.747,1.747,0,0,1,7409.87,615.25Zm6.13,0a1.75,1.75,0,1,1-1.75,1.75A1.747,1.747,0,0,1,7416,615.25Zm6.12,0a1.75,1.75,0,1,1-1.75,1.75A1.747,1.747,0,0,1,7422.12,615.25Z" transform="translate(-7402 -603)"/>
</svg>
