<?xml version="1.0" encoding="utf-8"?>
<!-- Generator: Adobe Illustrator 23.0.0, SVG Export Plug-In . SVG Version: 6.00 Build 0)  -->
<svg version="1.1" id="Capa_1" xmlns="http://www.w3.org/2000/svg" xmlns:xlink="http://www.w3.org/1999/xlink" x="0px" y="0px"
	 viewBox="0 0 60 60" style="enable-background:new 0 0 60 60;" xml:space="preserve">
<style type="text/css">
	.st0{fill:#607E9A;}
</style>
<path class="st0" d="M30,1.5c-16.5,0-30,12.1-30,27c0,5.2,1.6,10.2,4.8,14.6c-0.6,6.5-2.2,11.4-4.5,13.7c-0.3,0.3-0.4,0.8-0.2,1.2
	c0.2,0.3,0.5,0.6,0.9,0.6c0,0,0.1,0,0.1,0c0.4-0.1,9.8-1.4,16.6-5.3c3.9,1.6,8,2.3,12.2,2.3c16.5,0,30-12.1,30-27S46.5,1.5,30,1.5z
	 M16,32.5c-2.2,0-4-1.8-4-4s1.8-4,4-4s4,1.8,4,4S18.2,32.5,16,32.5z M30,32.5c-2.2,0-4-1.8-4-4s1.8-4,4-4s4,1.8,4,4
	S32.2,32.5,30,32.5z M44,32.5c-2.2,0-4-1.8-4-4s1.8-4,4-4s4,1.8,4,4S46.2,32.5,44,32.5z"/>
</svg>
