<?xml version="1.0" encoding="utf-8"?>
<!-- Generator: Adobe Illustrator 23.0.0, SVG Export Plug-In . SVG Version: 6.00 Build 0)  -->
<svg version="1.1" id="Layer_1" xmlns="http://www.w3.org/2000/svg" xmlns:xlink="http://www.w3.org/1999/xlink" x="0px" y="0px"
	 viewBox="0 0 86.8 176" style="enable-background:new 0 0 86.8 176;" xml:space="preserve">
<style type="text/css">
	.st0{fill:#848484;}
</style>
<path class="st0" d="M50.4,82.1V42.4c4,1.5,7.4,4.2,9.8,7.8c2.1,3.2,6.5,4.1,9.7,2c3.2-2.1,4.1-6.5,2-9.7
	c-5-7.6-12.8-12.8-21.5-14.6V16.7c0-3.9-3.1-7-7-7s-7,3.1-7,7v11.1C20.9,31,9.2,44.8,9.2,61.2s11.7,30.2,27.2,33.4v39.7
	c-4-1.5-7.4-4.2-9.8-7.8c-2.1-3.2-6.5-4.1-9.7-2c-3.2,2.1-4.1,6.5-2,9.7c5,7.6,12.8,12.8,21.5,14.6V160c0,3.9,3.1,7,7,7s7-3.1,7-7
	V149c15.5-3.2,27.2-17,27.2-33.4S65.9,85.3,50.4,82.1L50.4,82.1z M23.2,61.2c0-8.7,5.5-16,13.2-18.9v37.7
	C28.7,77.3,23.2,69.9,23.2,61.2z M50.4,134.4V96.6c7.7,2.8,13.2,10.2,13.2,18.9S58.1,131.6,50.4,134.4z"/>
</svg>
