<?xml version="1.0" encoding="utf-8"?>
<!-- Generator: Adobe Illustrator 23.0.0, SVG Export Plug-In . SVG Version: 6.00 Build 0)  -->
<svg version="1.1" id="Layer_1" xmlns="http://www.w3.org/2000/svg" xmlns:xlink="http://www.w3.org/1999/xlink" x="0px" y="0px"
	 viewBox="0 0 44 44" style="enable-background:new 0 0 44 44;" xml:space="preserve">
<style type="text/css">
	.st0{fill:#FFFFFF;}
</style>
<g>
	<g>
		<g>
			<path class="st0" d="M43,6H1C0.4,6,0,6.4,0,7v30c0,0.6,0.4,1,1,1h42c0.6,0,1-0.4,1-1V7C44,6.4,43.6,6,43,6z M42,33.6L29.6,21.2
				l-1.4,1.4L41.6,36H2.4l13.4-13.4l-1.4-1.4L2,33.6V8h40V33.6z"/>
		</g>
	</g>
	<g>
		<g>
			<path class="st0" d="M40,8L22,26L4,8H2v0.8l19.3,19.3c0.4,0.4,1,0.4,1.4,0L42,8.8V8H40z"/>
		</g>
	</g>
</g>
</svg>
