<?xml version="1.0" encoding="utf-8"?>
<!-- Generator: Adobe Illustrator 23.0.0, SVG Export Plug-In . SVG Version: 6.00 Build 0)  -->
<svg version="1.1" id="Layer_1" xmlns="http://www.w3.org/2000/svg" xmlns:xlink="http://www.w3.org/1999/xlink" x="0px" y="0px"
	 viewBox="0 0 443 443" style="enable-background:new 0 0 443 443;" xml:space="preserve">
<style type="text/css">
	.st0{fill:#607E9A;}
</style>
<g>
	<path class="st0" d="M321.8,38h-83.4V0H125.2v38H41.8v60h280V38z M155.2,30h53.2v8h-53.2V30z"/>
	<path class="st0" d="M295.1,214.3l5.7-86.3h-238l19,290H196c-14.9-21.1-23.6-46.7-23.6-74.4C172.4,274.4,226.8,217.8,295.1,214.3z"
		/>
	<path class="st0" d="M301.8,244.1c-54.8,0-99.4,44.6-99.4,99.4S247,443,301.8,443s99.4-44.6,99.4-99.4S356.6,244.1,301.8,244.1z
		 M356,376.5l-21.2,21.2l-33-33l-33,33l-21.2-21.2l33-33l-33-33l21.2-21.2l33,33l33-33l21.2,21.2l-33,33L356,376.5z"/>
</g>
</svg>
