<svg xmlns="http://www.w3.org/2000/svg" width="44.88" height="46" viewBox="0 0 44.88 46">
  <defs>
    <style>
      .cls-1 {
        fill: #607e9a;
      }

      .cls-1, .cls-2 {
        fill-rule: evenodd;
      }

      .cls-2 {
        fill: #fff;
      }
    </style>
  </defs>
  <path class="cls-1" d="M5419,1647s-5-.08-5-4v-29s0.9-5,8-5h27s4,0.16,4,3c0.91,1.92,5,1.59,5,4v32s-2.35,4-5,4h-30S5419,1649.66,5419,1647Z" transform="translate(-5413.56 -1609)"/>
  <path id="Forma_1" data-name="Forma 1" class="cls-2" d="M5446.85,1622.05a4.515,4.515,0,1,0,4.52,4.52A4.52,4.52,0,0,0,5446.85,1622.05Zm0,7.28a2.76,2.76,0,1,1,2.76-2.76A2.766,2.766,0,0,1,5446.85,1629.33Zm0.03,20.77a1.093,1.093,0,0,0-.08-0.15,1.025,1.025,0,0,0-.24-0.24,1.093,1.093,0,0,0-.15-0.08,0.48,0.48,0,0,0-.17-0.05,0.653,0.653,0,0,0-.34,0,0.494,0.494,0,0,0-.16.05,1.093,1.093,0,0,0-.15.08,0.755,0.755,0,0,0-.14.11,0.642,0.642,0,0,0-.1.13,0.548,0.548,0,0,0-.08.15,0.494,0.494,0,0,0-.05.16,0.554,0.554,0,0,0-.02.18,0.524,0.524,0,0,0,.02.17,0.494,0.494,0,0,0,.05.16,0.548,0.548,0,0,0,.08.15,0.642,0.642,0,0,0,.1.13c0.02,0.02.05,0.04,0.07,0.06a0.179,0.179,0,0,0,.07.05,0.548,0.548,0,0,0,.15.08,0.494,0.494,0,0,0,.16.05,0.524,0.524,0,0,0,.17.02,0.468,0.468,0,0,0,.17-0.02,0.48,0.48,0,0,0,.17-0.05,0.548,0.548,0,0,0,.15-0.08,0.3,0.3,0,0,0,.07-0.05l0.06-.06a0.689,0.689,0,0,0,.11-0.13,1.093,1.093,0,0,0,.08-0.15,0.983,0.983,0,0,0,.05-0.16,1.114,1.114,0,0,0,.02-0.17,1.1,1.1,0,0,0-.02-0.18A0.983,0.983,0,0,0,5446.88,1650.1Zm-13.78-34.67c-0.03-.05-0.05-0.1-0.08-0.15a1.71,1.71,0,0,0-.11-0.14,0.71,0.71,0,0,0-.14-0.1,0.543,0.543,0,0,0-.15-0.09c-0.05-.02-0.11-0.03-0.16-0.05a0.971,0.971,0,0,0-.34,0c-0.06.02-.11,0.03-0.17,0.05a1.191,1.191,0,0,0-.15.09,0.642,0.642,0,0,0-.13.1,0.755,0.755,0,0,0-.11.14,1.093,1.093,0,0,0-.08.15,0.983,0.983,0,0,0-.05.16,1.114,1.114,0,0,0-.02.17,1.1,1.1,0,0,0,.02.18,0.983,0.983,0,0,0,.05.16,1.093,1.093,0,0,0,.08.15,1.025,1.025,0,0,0,.24.24,1.093,1.093,0,0,0,.15.08,0.549,0.549,0,0,0,.17.05,0.881,0.881,0,0,0,.17.02,1.114,1.114,0,0,0,.17-0.02,0.494,0.494,0,0,0,.16-0.05,0.53,0.53,0,0,0,.15-0.08,0.755,0.755,0,0,0,.14-0.11,1.5,1.5,0,0,0,.11-0.13c0.03-.05.05-0.1,0.08-0.15a0.983,0.983,0,0,0,.05-0.16,1.087,1.087,0,0,0,.01-0.18,1.028,1.028,0,0,0-.01-0.17A0.983,0.983,0,0,0,5433.1,1615.43Zm20.43-.54a5.04,5.04,0,0,0-4.9-3.88h-27.49a7.584,7.584,0,0,0-7.57,7.57v27.49a51.214,51.214,0,0,0,9.8,8.92h30.02a5.045,5.045,0,0,0,5.04-5.04v-30.02A5.056,5.056,0,0,0,5453.53,1614.89Zm3.14,35.06a3.29,3.29,0,0,1-3.28,3.29h-30.02a3.3,3.3,0,0,1-3.07-2.13,3.191,3.191,0,0,1-.22-1.16v-4.65l10.05-17.04a1.659,1.659,0,0,1,2.88.05l4.32,7.94,6.29,11.55a0.864,0.864,0,0,0,.77.46,0.9,0.9,0,0,0,.42-0.1,0.878,0.878,0,0,0,.35-1.19l-2.04-3.75a3.622,3.622,0,0,0,2.48-.83l3.94-3.27a1.656,1.656,0,0,1,2.17.05l0.21,0.19,1.75,1.61,3,2.75v6.23Zm0-8.6-3-2.76-1.75-1.33a3.411,3.411,0,0,0-3.5.51l-3.94,3.27a1.865,1.865,0,0,1-2.84-.55l-2.77-5.07-1.54-2.84h0l-2.79-5.11a3.389,3.389,0,0,0-5.91-.1l-8.55,14.48v-21.92a3.293,3.293,0,0,1,3.29-3.29h5.41a0.875,0.875,0,1,0,0-1.75h-5.41a5.045,5.045,0,0,0-5.04,5.04v29.42a3.3,3.3,0,0,1-3-3.28v-27.49a5.823,5.823,0,0,1,5.81-5.82h27.49a3.3,3.3,0,0,1,3.07,2.13h-15.91a0.875,0.875,0,0,0,0,1.75h16.13l1.75,0.01a3.3,3.3,0,0,1,3,3.28v21.42Z" transform="translate(-5413.56 -1609)"/>
</svg>
