<?xml version="1.0" encoding="utf-8"?>
<!-- Generator: Adobe Illustrator 23.0.0, SVG Export Plug-In . SVG Version: 6.00 Build 0)  -->
<svg version="1.1" id="Capa_1" xmlns="http://www.w3.org/2000/svg" xmlns:xlink="http://www.w3.org/1999/xlink" x="0px" y="0px"
	 viewBox="0 0 111.6 111.6" style="enable-background:new 0 0 111.6 111.6;" xml:space="preserve">
<style type="text/css">
	.st0{fill:#607E9A;}
</style>
<g>
	<path class="st0" d="M79,99.5l-1.6,6.4c-4.7,1.8-8.4,3.3-11.2,4.2c-2.8,1-6,1.5-9.7,1.5c-5.7,0-10.1-1.4-13.2-4.1
		c-3.1-2.8-4.7-6.3-4.7-10.5c0-1.6,0.1-3.3,0.4-5.1c0.2-1.7,0.6-3.7,1.1-5.8l5.8-20.7c0.5-2,1-3.9,1.3-5.6c0.4-1.8,0.5-3.4,0.5-4.8
		c0-2.6-0.5-4.5-1.6-5.5c-1.1-1-3.2-1.6-6.3-1.6c-1.5,0-3.1,0.2-4.6,0.7c-1.6,0.5-2.9,0.9-4.1,1.3l1.6-6.4c3.8-1.6,7.5-2.9,11-4
		c3.5-1.1,6.8-1.7,9.9-1.7c5.6,0,10,1.4,13,4.1c3,2.7,4.6,6.2,4.6,10.6c0,0.9-0.1,2.5-0.3,4.7c-0.2,2.3-0.6,4.3-1.2,6.2L63.9,84
		c-0.5,1.7-0.9,3.5-1.3,5.7c-0.4,2.1-0.6,3.7-0.6,4.8c0,2.7,0.6,4.6,1.8,5.6c1.2,1,3.4,1.5,6.4,1.5c1.4,0,3-0.3,4.8-0.7
		C76.9,100.3,78.2,99.9,79,99.5z M80.4,13c0,3.6-1.4,6.7-4.1,9.2c-2.7,2.5-6,3.8-9.8,3.8c-3.8,0-7.1-1.3-9.9-3.8
		c-2.7-2.5-4.1-5.6-4.1-9.2c0-3.6,1.4-6.7,4.1-9.2c2.7-2.5,6-3.8,9.9-3.8c3.8,0,7.1,1.3,9.8,3.8C79.1,6.4,80.4,9.4,80.4,13z"/>
</g>
</svg>
