<?xml version="1.0" encoding="utf-8"?>
<!-- Generator: Adobe Illustrator 23.0.0, SVG Export Plug-In . SVG Version: 6.00 Build 0)  -->
<svg version="1.1" id="Layer_1" xmlns="http://www.w3.org/2000/svg" xmlns:xlink="http://www.w3.org/1999/xlink" x="0px" y="0px"
	 viewBox="0 0 52 53" style="enable-background:new 0 0 52 53;" xml:space="preserve">
<style type="text/css">
	.st0{display:none;fill:#FFFFFF;}
	.st1{fill:#FFFFFF;}
</style>
<g>
	<path class="st0" d="M50.2,4.7c-0.2-1.7-1.7-2.9-3.4-2.9H4.8c-1.7,0-3.1,1.2-3.3,2.8C1.3,6.4,2.4,7.9,3.9,8.3v2.6
		c0-0.4,0.4-0.8,0.8-0.8l1.6,0c0.4,0,0.8,0.3,0.8,0.7c0.1,0.5-0.3,0.9-0.8,0.9H4.7c-0.4,0-0.8-0.4-0.8-0.8v36.9l2.4-2.4l4.9,4.9
		l4.9-4.9l4.9,4.9l4.9-4.9l4.9,4.9l4.9-4.9l4.9,4.9l4.9-4.9l2.4,2.4V10.8c0,0.4-0.4,0.8-0.8,0.8l-1.6,0c-0.4,0-0.8-0.3-0.8-0.7
		c-0.1-0.5,0.3-0.9,0.8-0.9H47c0.4,0,0.8,0.4,0.8,0.8V8.3C49.3,7.9,50.4,6.4,50.2,4.7z M26.7,28.7c0.4,0,0.8,0.4,0.8,0.8
		c0,0.4-0.4,0.8-0.8,0.8H25c-0.4,0-0.8-0.4-0.8-0.8c0-0.4,0.4-0.8,0.8-0.8H26.7z M25,23.8c0-0.2,0.1-0.4,0.2-0.6
		c0.3-0.3,0.9-0.3,1.2,0c0.1,0.2,0.2,0.4,0.2,0.6c0,0.2-0.1,0.4-0.2,0.6c-0.2,0.1-0.4,0.2-0.6,0.2c-0.2,0-0.4-0.1-0.6-0.2
		C25.1,24.3,25,24.1,25,23.8z M25,19c-0.4,0-0.8-0.4-0.8-0.8c0-0.4,0.4-0.8,0.8-0.8h12.2c0.4,0,0.8,0.4,0.8,0.8
		c0,0.4-0.4,0.8-0.8,0.8H25z M26.5,10.8c0-0.4,0.4-0.8,0.8-0.8h3c0.4,0,0.8,0.4,0.8,0.8s-0.4,0.8-0.8,0.8h-3
		C26.9,11.6,26.5,11.3,26.5,10.8z M32.5,10.8c0-0.4,0.4-0.8,0.8-0.8h3c0.4,0,0.8,0.4,0.8,0.8s-0.4,0.8-0.8,0.8h-3
		C32.9,11.6,32.5,11.3,32.5,10.8z M8.5,10.8c0-0.4,0.4-0.8,0.8-0.8h3c0.4,0,0.8,0.4,0.8,0.8s-0.4,0.8-0.8,0.8h-3
		C8.9,11.6,8.5,11.3,8.5,10.8z M17.7,23.8c-0.4,0-0.8-0.4-0.8-0.8c0-1.1-0.7-2-1.6-2.3v4.4l1.8,1.4c0.6,0.5,1,1.2,1.1,2
		c0.1,0.8-0.1,1.5-0.6,2.1c-0.6,0.7-1.4,1.2-2.3,1.4v0.7c0,0.4-0.4,0.8-0.8,0.8c-0.4,0-0.8-0.4-0.8-0.8v-0.7c-1.9-0.4-3.3-2-3.3-4
		c0-0.4,0.4-0.8,0.8-0.8c0.4,0,0.8,0.4,0.8,0.8c0,1.1,0.7,2,1.6,2.3v-4.4l-1.8-1.4c-0.6-0.5-1-1.2-1.1-2c-0.1-0.8,0.1-1.5,0.6-2.1
		c0.6-0.7,1.4-1.2,2.3-1.4v-0.9c0-0.4,0.4-0.8,0.8-0.8c0.4,0,0.8,0.4,0.8,0.8V19c1.9,0.4,3.3,2,3.3,4C18.5,23.5,18.2,23.8,17.7,23.8
		z M18.3,11.6h-3c-0.4,0-0.8-0.4-0.8-0.8s0.4-0.8,0.8-0.8h3c0.4,0,0.8,0.4,0.8,0.8S18.8,11.6,18.3,11.6z M20.5,10.8
		c0-0.4,0.4-0.8,0.8-0.8h3c0.4,0,0.8,0.4,0.8,0.8s-0.4,0.8-0.8,0.8h-3C20.9,11.6,20.5,11.3,20.5,10.8z M37.2,36H25
		c-0.4,0-0.8-0.4-0.8-0.8c0-0.4,0.4-0.8,0.8-0.8h12.2c0.4,0,0.8,0.4,0.8,0.8C38,35.7,37.7,36,37.2,36z M29.1,29.5
		c0-0.2,0.1-0.4,0.2-0.6c0.3-0.3,0.9-0.3,1.2,0c0.1,0.1,0.2,0.4,0.2,0.6c0,0.2-0.1,0.4-0.2,0.6c-0.2,0.1-0.4,0.2-0.6,0.2
		c-0.2,0-0.4-0.1-0.6-0.2C29.2,30,29.1,29.7,29.1,29.5z M41.9,35.8c-0.2,0.1-0.4,0.2-0.6,0.2c-0.2,0-0.4-0.1-0.6-0.2
		c-0.1-0.2-0.2-0.4-0.2-0.6c0-0.2,0.1-0.4,0.2-0.6c0.3-0.3,0.8-0.3,1.2,0c0.1,0.2,0.2,0.4,0.2,0.6C42.1,35.4,42,35.6,41.9,35.8z
		 M41.3,30.3h-8.1c-0.4,0-0.8-0.4-0.8-0.8c0-0.4,0.4-0.8,0.8-0.8h8.1c0.4,0,0.8,0.4,0.8,0.8C42.1,30,41.7,30.3,41.3,30.3z
		 M41.3,24.6H29.1c-0.4,0-0.8-0.4-0.8-0.8c0-0.4,0.4-0.8,0.8-0.8h12.2c0.4,0,0.8,0.4,0.8,0.8C42.1,24.3,41.7,24.6,41.3,24.6z
		 M41.9,18.7c-0.2,0.1-0.4,0.2-0.6,0.2c-0.2,0-0.4-0.1-0.6-0.2c-0.1-0.2-0.2-0.4-0.2-0.6c0-0.2,0.1-0.4,0.2-0.6
		c0.3-0.3,0.9-0.3,1.2,0c0.1,0.2,0.2,0.4,0.2,0.6C42.1,18.4,42,18.6,41.9,18.7z M42.4,11.6h-3c-0.4,0-0.8-0.4-0.8-0.8
		s0.4-0.8,0.8-0.8h3c0.4,0,0.8,0.4,0.8,0.8S42.8,11.6,42.4,11.6z M44.9,6.8h0.4H7l0,0c-1.1,0-1.3-0.7-1.3-1.2c0-0.8,0.6-1.4,1.4-1.4
		h37.5c0.8,0,1.4,0.6,1.4,1.4C46,6.1,45.6,6.8,44.9,6.8z"/>
	<g>
		<path class="st1" d="M50.2,5.7c0-1.8-1.4-3.2-3.2-3.2H5.5c-1.8,0-3.2,1.4-3.2,3.2c0,1.5,1,2.7,2.4,3.1v38.8l2.4-2.4l4.8,4.8
			l4.8-4.8l4.8,4.8l4.8-4.8l4.8,4.8l4.8-4.8l4.8,4.8l4.8-4.8l2.4,2.4V8.8C49.2,8.4,50.2,7.2,50.2,5.7z M46.2,8.9v34.8l-0.8-0.8
			l-4.8,4.8l-4.8-4.8l-4.8,4.8l-4.8-4.8l-4.8,4.8l-4.8-4.8l-4.8,4.8l-4.8-4.8l-0.8,0.8V8.9 M47.8,7.1L47.8,7.1H4.7l0,0
			C4.2,6.8,3.9,6.3,3.9,5.7c0-0.9,0.7-1.6,1.6-1.6H47c0.9,0,1.6,0.7,1.6,1.6C48.6,6.3,48.3,6.8,47.8,7.1z"/>
		<path class="st1" d="M28.3,16v-1.3c0-0.7-0.5-1.2-1.2-1.2s-1.2,0.5-1.2,1.2V16c-1.3,0.3-2.6,1-3.5,2c-0.7,0.9-1.1,2-1,3.2
			c0.1,1.2,0.7,2.3,1.7,3l2.7,2.1v6.7c-1.4-0.5-2.4-1.9-2.4-3.4c0-0.7-0.5-1.2-1.2-1.2s-1.2,0.5-1.2,1.2c0,3,2.1,5.4,4.9,6v1.1
			c0,0.7,0.5,1.2,1.2,1.2s1.2-0.5,1.2-1.2v-1.1c1.3-0.3,2.6-1,3.5-2c0.7-0.9,1.1-2,1-3.2c-0.1-1.2-0.7-2.3-1.7-3l-2.7-2.1v-6.7
			c1.4,0.5,2.4,1.9,2.4,3.4c0,0.7,0.5,1.2,1.2,1.2c0.7,0,1.2-0.5,1.2-1.2C33.2,19,31.1,16.6,28.3,16z M29.5,29.3
			c0.4,0.3,0.7,0.8,0.8,1.4c0.1,0.5-0.1,1-0.4,1.4c-0.4,0.5-1,0.9-1.6,1.1v-4.7L29.5,29.3z M24.6,22.3c-0.4-0.3-0.7-0.8-0.8-1.4
			c-0.1-0.5,0.1-1,0.4-1.4c0.4-0.5,1-0.9,1.6-1.1v4.7L24.6,22.3z"/>
	</g>
</g>
</svg>
