<?xml version="1.0" encoding="utf-8"?>
<!-- Generator: Adobe Illustrator 23.0.0, SVG Export Plug-In . SVG Version: 6.00 Build 0)  -->
<svg version="1.1" id="Layer_1" xmlns="http://www.w3.org/2000/svg" xmlns:xlink="http://www.w3.org/1999/xlink" x="0px" y="0px"
	 viewBox="0 0 129 129" style="enable-background:new 0 0 129 129;" xml:space="preserve">
<style type="text/css">
	.st0{fill:#FFFFFF;}
</style>
<g>
	<g>
		<path class="st0" d="M116,5.1H13c-4.4,0-7.9,3.4-7.9,7.9s3.4,7.9,7.9,7.9h103.2c4.4,0,7.9-3.4,7.9-7.9
			C123.8,8.5,120.4,5.1,116,5.1z"/>
		<path class="st0" d="M116,108.3H13c-4.4,0-7.9,3.4-7.9,7.9c0,4.4,3.4,7.9,7.9,7.9h103.2c4.4,0,7.9-3.4,7.9-7.9
			C123.8,111.7,120.4,108.3,116,108.3z"/>
		<path class="st0" d="M116,56.6H13c-4.4,0-7.9,3.4-7.9,7.9s3.4,7.9,7.9,7.9h103.2c4.4,0,7.9-3.4,7.9-7.9
			C123.8,60.1,120.4,56.6,116,56.6z"/>
	</g>
</g>
</svg>
