<?xml version="1.0" encoding="utf-8"?>
<!-- Generator: Adobe Illustrator 23.1.0, SVG Export Plug-In . SVG Version: 6.00 Build 0)  -->
<svg version="1.1" id="Layer_1" xmlns="http://www.w3.org/2000/svg" xmlns:xlink="http://www.w3.org/1999/xlink" x="0px" y="0px"
	 viewBox="0 0 500 500" style="enable-background:new 0 0 500 500;" xml:space="preserve">
<style type="text/css">
	.st0{opacity:0.2;}
	.st1{fill-rule:evenodd;clip-rule:evenodd;fill:#6EB0DA;}
	.st2{fill-rule:evenodd;clip-rule:evenodd;fill:#1982C5;}
	.st3{fill:none;stroke:#AED3EB;stroke-linecap:round;stroke-miterlimit:10;}
	.st4{fill:none;stroke:#AED3EB;stroke-linecap:round;stroke-miterlimit:10;stroke-dasharray:4.0243,4.0243;}
	.st5{fill:#F9FCFE;}
	.st6{fill:#AED3EB;}
	.st7{fill:none;stroke:#AED3EB;stroke-miterlimit:10;}
	.st8{fill:none;stroke:#AED3EB;stroke-linecap:round;stroke-linejoin:round;stroke-miterlimit:10;}
	.st9{fill:#1B75BC;}
	.st10{fill:#60A9D7;}
	.st11{fill:none;stroke:#6EB0DA;stroke-width:0.5;stroke-miterlimit:10;}
	.st12{fill:#EFF6FB;}
	.st13{fill:none;stroke:#C6E0F1;stroke-width:0.5;stroke-miterlimit:10;}
	.st14{fill:none;stroke:#AED3EB;stroke-width:5;stroke-linecap:round;stroke-miterlimit:10;}
	.st15{fill:#6EB0DA;}
	.st16{opacity:0.4;}
	.st17{fill:#1982C5;}
	.st18{fill:#F5F9FC;}
</style>
<g class="st0">
	<path class="st1" d="M427.6,483.9c128.8-102-21.6-212.8-85.2-144.8c64.1-219.2-335.6-235.9-245-3.2c0,0-153.4,5.1-59.6,140.3
		L427.6,483.9L427.6,483.9z M62.9,279.8c7.3,36-20.9,54.2-41.3,54.8c-12.9,0.3-19.7-6.8-20.5-15.3c-1.5-16.3,12-22.5,24.7-26
		c6.6-1.8,13-4.4,15.6-11.9C47.1,264.7,58.8,259.8,62.9,279.8L62.9,279.8z M400,298.5c-17.1,11.3-21.8-0.4-14.1-16.2
		c3.5-7.2,0.7-13.5-2.6-19.5c-6.5-11.5-11.6-25.5,0.9-35.9c6.6-5.5,16.4-5.7,25.3,3.7C423.6,245.4,430.6,278.2,400,298.5L400,298.5z
		 M441.4,478.9c0,0,47.6-26.2,43.7-85.7c0,0-0.1-1.5,0.9-1.6c1-0.1,17.6,48-17.5,83.6L441.4,478.9z"/>
	<g>
		<path class="st2" d="M127.3,345.2h3.7c0.7,0,1.2,0.6,1.2,1.2v3.7c0,0.7-0.6,1.2-1.2,1.2h-3.7c-0.7,0-1.2-0.6-1.2-1.2v-3.7
			C126.1,345.8,126.6,345.2,127.3,345.2z"/>
		<path class="st2" d="M139.9,345.2h3.7c0.7,0,1.2,0.6,1.2,1.2v3.7c0,0.7-0.6,1.2-1.2,1.2h-3.7c-0.7,0-1.2-0.6-1.2-1.2v-3.7
			C138.7,345.8,139.2,345.2,139.9,345.2z"/>
		<path class="st2" d="M152.5,345.2h3.7c0.7,0,1.2,0.6,1.2,1.2v3.7c0,0.7-0.6,1.2-1.2,1.2h-3.7c-0.7,0-1.2-0.6-1.2-1.2v-3.7
			C151.3,345.8,151.8,345.2,152.5,345.2z"/>
		<path class="st2" d="M165.1,345.2h3.7c0.7,0,1.2,0.6,1.2,1.2v3.7c0,0.7-0.6,1.2-1.2,1.2h-3.7c-0.7,0-1.2-0.6-1.2-1.2v-3.7
			C163.9,345.8,164.4,345.2,165.1,345.2z"/>
	</g>
	<path class="st2" d="M5.8,473.8h488.4c3.2,0,5.8,2.6,5.8,5.8v0c0,3.2-2.6,5.8-5.8,5.8h-19.7c-1.8,0-3.2,1.5-3.2,3.2v0
		c0,1.8,1.5,3.2,3.2,3.2h7.2c2.2,0,4,1.8,4,4l0,0c0,2.2-1.8,4-4,4H18.9c-2.2,0-4-1.8-4-4l0,0c0-2.2,1.8-4,4-4h5.7
		c1.8,0,3.2-1.5,3.2-3.2v0c0-1.8-1.5-3.2-3.2-3.2H5.8c-3.2,0-5.8-2.6-5.8-5.8v0C0,476.4,2.6,473.8,5.8,473.8L5.8,473.8z M8.9,500
		c2.1,0,3.9-1.7,3.9-3.9v-0.3c0-2.1-1.7-3.9-3.9-3.9l0,0c-2.1,0-3.9,1.7-3.9,3.9v0.3C5,498.3,6.7,500,8.9,500L8.9,500z"/>
	<path class="st2" d="M75.9,234.7c-0.5,0-0.8-0.5-0.8-1.2s0.4-1.2,0.8-1.2h39.5c0.5,0,0.8,0.5,0.8,1.2s-0.4,1.2-0.8,1.2H75.9
		L75.9,234.7z M70.5,232.3c0.5,0,0.8,0.5,0.8,1.2s-0.4,1.2-0.8,1.2h-3.3c-0.5,0-0.8-0.5-0.8-1.2s0.4-1.2,0.8-1.2H70.5z"/>
	<path class="st2" d="M429.4,351.9c0-0.3,0.2-0.5,0.5-0.5c0.3,0,0.5,0.2,0.5,0.5v2.3c0,0.3-0.2,0.5-0.5,0.5c-0.3,0-0.5-0.2-0.5-0.5
		V351.9L429.4,351.9z M425.9,353.8c-0.2-0.2-0.2-0.5,0-0.7c0.2-0.2,0.5-0.2,0.7,0l1.6,1.6c0.2,0.2,0.2,0.5,0,0.7
		c-0.2,0.2-0.5,0.2-0.7,0L425.9,353.8L425.9,353.8z M424.8,357.5c-0.3,0-0.5-0.2-0.5-0.5c0-0.3,0.2-0.5,0.5-0.5h2.3
		c0.3,0,0.5,0.2,0.5,0.5c0,0.3-0.2,0.5-0.5,0.5H424.8L424.8,357.5z M426.6,361c-0.2,0.2-0.5,0.2-0.7,0c-0.2-0.2-0.2-0.5,0-0.7
		l1.6-1.6c0.2-0.2,0.5-0.2,0.7,0c0.2,0.2,0.2,0.5,0,0.7L426.6,361L426.6,361z M430.4,362.1c0,0.3-0.2,0.5-0.5,0.5
		c-0.3,0-0.5-0.2-0.5-0.5v-2.3c0-0.3,0.2-0.5,0.5-0.5c0.3,0,0.5,0.2,0.5,0.5V362.1L430.4,362.1z M433.9,360.3c0.2,0.2,0.2,0.5,0,0.7
		c-0.2,0.2-0.5,0.2-0.7,0l-1.6-1.6c-0.2-0.2-0.2-0.5,0-0.7c0.2-0.2,0.5-0.2,0.7,0L433.9,360.3L433.9,360.3z M435,356.5
		c0.3,0,0.5,0.2,0.5,0.5c0,0.3-0.2,0.5-0.5,0.5h-2.3c-0.3,0-0.5-0.2-0.5-0.5c0-0.3,0.2-0.5,0.5-0.5H435L435,356.5z M433.2,353
		c0.2-0.2,0.5-0.2,0.7,0c0.2,0.2,0.2,0.5,0,0.7l-1.6,1.6c-0.2,0.2-0.5,0.2-0.7,0c-0.2-0.2-0.2-0.5,0-0.7L433.2,353z"/>
	<path class="st2" d="M63.5,445.7c0-0.3,0.2-0.5,0.5-0.5c0.3,0,0.5,0.2,0.5,0.5v2.3c0,0.3-0.2,0.5-0.5,0.5c-0.3,0-0.5-0.2-0.5-0.5
		V445.7L63.5,445.7z M60.1,447.5c-0.2-0.2-0.2-0.5,0-0.7c0.2-0.2,0.5-0.2,0.7,0l1.6,1.6c0.2,0.2,0.2,0.5,0,0.7
		c-0.2,0.2-0.5,0.2-0.7,0L60.1,447.5L60.1,447.5z M58.9,451.3c-0.3,0-0.5-0.2-0.5-0.5c0-0.3,0.2-0.5,0.5-0.5h2.3
		c0.3,0,0.5,0.2,0.5,0.5c0,0.3-0.2,0.5-0.5,0.5H58.9L58.9,451.3z M60.8,454.8c-0.2,0.2-0.5,0.2-0.7,0c-0.2-0.2-0.2-0.5,0-0.7
		l1.6-1.6c0.2-0.2,0.5-0.2,0.7,0c0.2,0.2,0.2,0.5,0,0.7L60.8,454.8L60.8,454.8z M64.6,455.9c0,0.3-0.2,0.5-0.5,0.5
		c-0.3,0-0.5-0.2-0.5-0.5v-2.3c0-0.3,0.2-0.5,0.5-0.5c0.3,0,0.5,0.2,0.5,0.5V455.9L64.6,455.9z M68,454.1c0.2,0.2,0.2,0.5,0,0.7
		c-0.2,0.2-0.5,0.2-0.7,0l-1.6-1.6c-0.2-0.2-0.2-0.5,0-0.7c0.2-0.2,0.5-0.2,0.7,0L68,454.1L68,454.1z M69.2,450.3
		c0.3,0,0.5,0.2,0.5,0.5c0,0.3-0.2,0.5-0.5,0.5h-2.3c-0.3,0-0.5-0.2-0.5-0.5c0-0.3,0.2-0.5,0.5-0.5H69.2L69.2,450.3z M67.3,446.8
		c0.2-0.2,0.5-0.2,0.7,0c0.2,0.2,0.2,0.5,0,0.7l-1.6,1.6c-0.2,0.2-0.5,0.2-0.7,0c-0.2-0.2-0.2-0.5,0-0.7L67.3,446.8z"/>
</g>
<g>
	<g>
		<g>
			<g>
				<path class="st3" d="M375.6,166.3c0.8,0,1.7,0.1,2.6,0.2"/>
				<path class="st4" d="M383.5,167.5c9.6,3,19.8,11.3,18.5,26.7c-2.4,27.3-66,17.2-81.2,17.5c-30.6,0.6-61.5,0.8-91.4,13.5
					c-7.3,3.1-17.7,9.9-16.9,27.6c0.3,6.2,2.2,11.8,4.6,16c8.8,15.1,20.9,16.5,32.3,19.1c17.1,4,98.6-1.3,125.2,15.3
					c5.2,3.3,11.8,7.5,12,21.8c0.6,36.3-46.7,34.5-60.9,35.2c-37.9,1.8-75.8,1.1-113.6-0.3c-30.6-1.1-61.3-2.2-91.9-5.9
					c-11.4-1.4-30-1.8-38.7-18.1c-4.9-9.1-5.5-25.7,2.2-34.1c5.4-6,21.3-3.4,27.4-4.4c17.6-2.9,13.4-22.4,0-26.6"/>
				<path class="st3" d="M108.3,270.2c-0.9-0.1-1.7-0.2-2.6-0.2"/>
			</g>
		</g>
		<g>
			<path class="st5" d="M405.9,187.6l-6.6-49.1c-0.4-2.9-2.9-4.2-4.5-2.2l-26.9,32.6c-1.6,1.9-1.1,5.6,0.9,6.6l33.5,16.5
				C404.2,193,406.3,190.5,405.9,187.6z"/>
			<g>
				<path class="st6" d="M400.8,186.8c-0.2,0-0.4,0-0.6-0.1l-27.6-13.6c-0.6-0.3-1-1-1.1-1.8c-0.1-0.8,0.1-1.7,0.6-2.3l22.1-26.8
					c0.5-0.6,1.1-0.7,1.7-0.4c0.6,0.3,1,1,1.1,1.8l5.4,40.4c0.1,0.8-0.1,1.7-0.6,2.3C401.6,186.6,401.2,186.8,400.8,186.8z
					 M374.1,170.6l26.1,12.8l-5.1-38.2L374.1,170.6z"/>
			</g>
			<path class="st6" d="M388.8,170.3L388.8,170.3c-0.5-0.3-0.8-1-0.6-1.8l2.7-13.5c0.3-1.2,1.2-1.9,2.1-1.5l0,0c0.9,0.4,1.3,1.8,1,3
				l-3.8,13C389.9,170.2,389.3,170.6,388.8,170.3z"/>
			<path class="st6" d="M389,174c-0.2,0.8-0.8,1.2-1.3,0.9c-0.5-0.3-0.8-1.1-0.6-1.9c0.2-0.8,0.8-1.2,1.3-0.9
				C388.9,172.4,389.2,173.3,389,174z"/>
		</g>
		<g>
			<path class="st5" d="M110.5,257.2L88.8,242c-1.3-0.9-2.8,0.5-2.7,2.5l1.5,34.1c0.1,2,1.7,3.2,2.9,2l20.2-18.8
				C111.9,260.6,111.8,258.1,110.5,257.2z"/>
			<g>
				<g>
					<path class="st6" d="M108.1,260.8c-0.1,0.1-0.2,0.3-0.3,0.4l-16.6,15.5c-0.3,0.3-0.8,0.4-1.2,0.1c-0.4-0.3-0.6-0.8-0.6-1.4
						l-1.2-28c0-0.6,0.2-1.1,0.5-1.5s0.8-0.4,1.2-0.1l17.9,12.5c0.4,0.3,0.6,0.8,0.6,1.4C108.3,260.1,108.3,260.5,108.1,260.8z
						 M90.8,274.5l15.7-14.6L89.7,248L90.8,274.5z"/>
				</g>
			</g>
			<path class="st6" d="M96.8,263.1L96.8,263.1c-0.3,0.3-0.7,0.2-1-0.2l-4.1-7.7c-0.4-0.7-0.2-1.7,0.3-2.2l0,0
				c0.5-0.5,1.2-0.3,1.6,0.5l3.4,8.3C97.2,262.3,97.1,262.8,96.8,263.1z"/>
			<path class="st6" d="M98.3,264.5c0.2,0.5,0.1,1.1-0.2,1.4c-0.3,0.3-0.8,0.2-1-0.3c-0.2-0.5-0.1-1.1,0.2-1.4
				C97.6,263.9,98.1,264,98.3,264.5z"/>
		</g>
		<g>
			<ellipse class="st7" cx="327.2" cy="272.6" rx="1.8" ry="2.5"/>
			<ellipse class="st7" cx="184.8" cy="201.3" rx="1.8" ry="2.5"/>
			<ellipse class="st7" cx="182.6" cy="394.7" rx="1.8" ry="2.5"/>
			<g>
				<line class="st8" x1="224.8" y1="245" x2="224.8" y2="250.7"/>
				<line class="st8" x1="226.8" y1="247.8" x2="222.7" y2="247.8"/>
			</g>
			<g>
				<line class="st8" x1="298.2" y1="171.4" x2="298.2" y2="177.2"/>
				<line class="st8" x1="300.2" y1="174.3" x2="296.1" y2="174.3"/>
			</g>
			<g>
				<line class="st8" x1="411.7" y1="326.7" x2="411.7" y2="332.4"/>
				<line class="st8" x1="413.8" y1="329.5" x2="409.7" y2="329.5"/>
			</g>
		</g>
	</g>
	<g>
		<g>
			<path class="st9" d="M364.6,491.2c0,0-10.7,4.6-10.7,6.9c0,1.3,14.7-0.6,15.6-1.5c1.4-1.4-0.6-5.2-0.6-5.2L364.6,491.2z"/>
			<path class="st10" d="M363.9,484.8l0.7,6.6c0,0,0.4,1.1,1.9,1.2c1.5,0.1,2.5-1.2,2.5-1.2l-0.5-8.2"/>
			<g>
				<path class="st9" d="M382.6,333.7c3.9,15.7,2.5,23.7-3.3,35.5c-3.5,39.8-5.9,79.5-10.5,118.3l-4.9,0.3
					c-11.2-37.8-21.5-94.3-20.2-145.9"/>
			</g>
			<g>
				<path class="st11" d="M380.2,339.1c1.4,3.6,1.8,7.7,1.7,11.6c-0.2,6-2.6,11.3-4.2,17c-2.1,7.5-2.3,15-2.8,22.8
					c-0.9,12.1-1.8,24.2-2.7,36.2c-1.5,19.7-3,39.4-4.5,59.1c0,0.6-0.1,1.2-0.1,1.8"/>
			</g>
		</g>
		<g>
			<path class="st9" d="M407.3,492.7c0,0-10.7,4.6-10.7,6.9c0,1.3,14.7-0.6,15.6-1.5c1.4-1.4-0.6-5.2-0.6-5.2L407.3,492.7z"/>
			<path class="st10" d="M406.6,486.3l0.7,6.6c0,0,0.4,1.1,1.9,1.2s2.5-1.2,2.5-1.2l-0.5-8.2"/>
			<g>
				<path class="st9" d="M418.2,332.4c4.9,15.4,4,23.5-0.9,35.6c-0.8,40-3.6,81.7-5.6,120.7h-5.1c-13.7-37-28.3-94.1-30.4-145.7"/>
			</g>
			<g>
				<path class="st11" d="M415.8,338.8c0,0,5.7,13.4-3.9,32.1c-1.1,17.7-1.7,117.9-1.7,117.9"/>
				<path class="st11" d="M401.7,343c1,1.5,2.5,2.6,4.2,3.3s3.4,1,5.2,1.2c2.1,0.3,4.2,0.4,6.4,0.3"/>
				<path class="st11" d="M402.4,345.5c1.8,1.7,4.2,2.7,6.5,3.2c2.4,0.6,4.9,0.7,7.3,0.7"/>
			</g>
		</g>
	</g>
	<g>
		<g>
			<path class="st10" d="M359.8,258c-17,29.6-35.4,56.5-46.2,88.9l-3.2-1.7c0.8-30.1,10.6-73.9,23.4-101.1"/>
		</g>
		<g>
			<path class="st12" d="M351.5,227c0,0-5.3,1.5-11.5,5.6c-5.8,3.9-10.2,9.7-13.2,16c-3,6.3-4.6,13.2-5.7,20.1c0,0,7.1,3.6,15.3,4.6
				c8.2,1,16.9,0,16.9,0"/>
		</g>
	</g>
	<g>
		<g>
			<path class="st12" d="M338.8,244.5c-1.8,32.1-0.4,65,0.4,96.2c0,0,11.2,3,38.3,3c27.1,0,44.8-8.2,44.8-8.2
				c-5.2-32-9.4-71.4-22.3-97.8c0,0-14.5-15.6-28.8-16.3c-2.9-0.1-5.7,0.9-8.5,2.2c-2,0.9-11.3,3.2-11.3,3.2L338.8,244.5z"/>
		</g>
		<path class="st13" d="M338.6,247.4c-0.7,6.2-0.7,25.2-0.7,25.2"/>
	</g>
	<path class="st14" d="M379.1,347.4c6-5,8.5,52.5,9.8,74.8c3.2,52.7,15.3,46.9,20.8,46.9c7.2,0,10.4,18.5,7,28.3"/>
	<path class="st6" d="M381.3,353.4c0,23.3-17.7,37.4-32.8,37.4h-24.8V316h24.8C363.6,316,381.3,330.1,381.3,353.4z"/>
	<path class="st15" d="M368.5,353.4c0,22.8-13.5,41.3-30.2,41.3H311v-82.6h27.3C355,312.1,368.5,330.6,368.5,353.4z"/>
	<ellipse class="st6" cx="313" cy="353.4" rx="30.2" ry="41.3"/>
	<g class="st16">
		<g>
			<path d="M315.5,368.1c0,3.4-2.3,6.1-5.2,6.1c-2.9,0-5.2-2.7-5.2-6.1s2.3-6.1,5.2-6.1C313.2,361.9,315.5,364.7,315.5,368.1z"/>
		</g>
		<g>
			<path d="M315.5,338.8c0,3.4-2.3,6.1-5.2,6.1c-2.9,0-5.2-2.7-5.2-6.1c0-3.4,2.3-6.1,5.2-6.1C313.2,332.7,315.5,335.4,315.5,338.8z
				"/>
		</g>
	</g>
	<g>
		<g>
			<path class="st10" d="M408.3,268.2c0,0,1.9,19.5-6.8,35.7c-7.5,13.9-22.3,31.8-34.2,41.7l-2.9-0.7c4.2-16,17.3-44.4,18.1-55
				c0.8-10.6,0.6-23,0.8-28.9"/>
		</g>
		<path class="st12" d="M371.2,221.5c0,0,16.1,1.1,25.4,9c13.3,11.2,15.3,33.2,15.3,38.3c-4,4.3-12.8,4.6-19.2,4.6
			s-11.1-3.1-11.1-3.1l-1.3-24.3"/>
		<g>
			<path class="st10" d="M365.5,342.6c-1.8,0.2-3.6,1.1-5.1,2.3c-1.4,1.1-3.1,2.9-3,3.8c0.2,0.9,2.5-0.8,2.8-0.5
				c0.3,0.3-3.9,6.7-3.2,7.2c0.8,0.5,4.4-5.3,4.4-5.3s-3.5,6.2-2.1,6.3c1.1,0.1,4.2-5.7,4.2-5.7s-2.6,5.2-1.7,5.4
				c0.9,0.2,3.3-5,3.3-5s-2,4.4-1.2,4.5c0.4,0,2.3-2.2,3.2-4.9c0.8-2.6,1.7-4.9,1-7"/>
		</g>
		<line class="st13" x1="382.2" y1="248.5" x2="382.2" y2="270.6"/>
	</g>
	<g>
		<g>
			<path class="st9" d="M338,201.1c-0.1,1-0.1,1.9-0.1,2.9c0,2.1,0.3,4.3,1.5,6c0.8,1.2,2.1,2,3.4,2.4c1,0.3,2.3,0.2,2.7-0.8
				c0.1-0.3,0.2-0.7,0.2-1.1c0-3.6-0.7-7.1-2-10.4"/>
		</g>
		<g>
			<path class="st10" d="M362.2,203.1c-1.4-5.4-5.7-12.9-12.8-11.4c-4.4,0.9-8.5,4-9.8,8.2c-1.6,5,1,10.9,4,15
				c1.1,1.5,2.4,3,4.2,3.9c4.1,2.1,9.6,0.4,12.4-3.1C362.9,212.1,363.3,207.3,362.2,203.1z"/>
		</g>
		<path class="st10" d="M352.3,217.1l2.3,8.4l-3.1,1.5c0,0,2.4,3.2,7.1,2.5c9.6-1.4,12.6-8.1,12.6-8.1l-5.4-0.6l-6-10.2"/>
		<g>
			<path class="st9" d="M366.9,197.2c-0.7-3.7-3.3-6.8-6.5-8.8c-5.7-3.5-13.8-3.7-18.9,1c-2.9,2.7-8.1,12.3-1.9,14.2
				c1.9,0.6,3.9-0.6,5.6-1.7c1.7-1.1,3.4-2.3,5.1-3.4c0.6-0.4,1.3-0.8,2-0.9c1.2,0,2.2,1,2.7,2.1c0.4,1.1,0.5,2.4,0.7,3.6
				c0.2,0.8,0.6,1.7,1.3,2.2c0.7,0.5,1.9,0.3,2.2-0.4c0.3-0.5,0.1-1.2,0.1-1.8c0-0.6,0.3-1.3,0.9-1.3c0.2,0,0.4,0.1,0.6,0.2
				c1.5,1.2,1,3.5,1.5,5.3c0.1,0.2-0.4,4-0.3,4.1C366.9,210.6,367.4,199.9,366.9,197.2z"/>
		</g>
		<g>
			<path class="st10" d="M359.8,202.5c-0.1-0.7,0.5-1.3,1.2-1.4c0.7-0.1,1.3,0.3,1.9,0.7c0.9,0.7,1.5,1.9,1.6,3
				c0,0.9-0.4,1.8-0.9,2.6c-0.3,0.5-0.8,1-1.4,1.2c-0.8,0.2-1.6-0.1-2.2-0.7"/>
		</g>
	</g>
	<g>
		<g>
			<path class="st9" d="M189.2,490.9c0,0,10.3,1.7,10.6,4c0.2,1.3-14.5,2.9-15.5,2.1c-1.6-1.2,0.4-5.8,0.4-5.8L189.2,490.9z"/>
			<path class="st10" d="M188.4,484.6l0.8,6.5c0,0-0.2,1.1-1.7,1.4c-1.5,0.3-2.6-0.9-2.6-0.9l-1.2-8.2"/>
			<g>
				<path class="st9" d="M149.7,335.8c-1.8,16.1-1.9,23.8,5.2,34.8c3.4,15.5,8.6,31.5,12.6,47.4c-1.7,19,10.2,49.3,16.6,70.9
					l4.6-0.8c6.2-38.9,8.5-98.6,2.9-150.9"/>
			</g>
			<path class="st11" d="M152.8,357.5c0,0,17.8,56.4,17.8,59.5c0,3.1,0.5,13.6,1.3,20.4c1.4,12.5,12.8,49.4,12.8,49.4"/>
			<polygon class="st15" points="184,489.7 183.3,486.9 189.3,486.7 189.4,489.3 			"/>
		</g>
		<g>
			<path class="st9" d="M108.8,491.2c0,0,8.1,5.8,7.4,7.9c-0.4,1.2-13.6-3.7-14.1-4.8c-0.8-1.7,2.8-4.8,2.8-4.8L108.8,491.2z"/>
			<path class="st10" d="M110.8,485.5l-2,5.9c0,0-0.7,0.8-2,0.5c-1.4-0.4-1.9-1.8-1.9-1.8l2.4-7.5"/>
			<g>
				<path class="st9" d="M115,332.4c-4.9,15.4-4,23.5,0.9,35.6c0.3,14.6,0.4,29.4,0.6,44.1c-10.4,26-12,49.4-10.7,74.2l5,1.9
					c0,0,29.9-52,35.3-72.6c6.3-23.6,9.9-48.8,10.8-72.5"/>
			</g>
			<path class="st11" d="M116.3,335.8c0,0-5.4,15.9,1.7,31.2c0,4.3,2.4,39.8,1.5,45.3c-0.5,2.6-5.3,15.2-8.6,27.4
				c-3.6,13.5-4.4,45.4-4.4,45.4"/>
			<polygon class="st15" points="104.9,486.4 105.7,483 112.1,486 110.8,488.9 			"/>
		</g>
	</g>
	<g>
		<path class="st17" d="M198.5,213.4l-4-3.4c0,0,0-6,0-7.1c0-1.1-1.5-7.7-2.8-7.7c-1.3,0-1.7-1.7-2.3-1c-0.7,0.7,0.6,8.2,0,8.7
			s-1.3-3.6-1.8-3c-0.5,0.5-0.6,3.5-0.6,5.1c0,1.5,1.2,4.4,2.5,5.6c1.2,1.2,6.6,7.1,6.6,7.1L198.5,213.4z"/>
		<g>
			<path class="st12" d="M196.5,211.2l-3.4,3.8c0,0,13.3,17.6,17.5,23.5c-3.8-1.3-9.3-4.7-12.5-6.8c-6.2-4.1-12.5-6.3-16.8-6.3
				c-9.2,0-4.4,30.3,6.3,34.8c20.2,3,42.9,1.1,46.4-6C239.1,243.6,209.4,218.8,196.5,211.2z"/>
		</g>
		<path class="st13" d="M210.6,238.5c0,0,2.5,7.1,7,9.4"/>
	</g>
	<g>
		<g>
			<path class="st12" d="M134.8,233.4c-24.1,27.1-23.8,73.7-23.8,105.4c0,0,17.7,12.1,44.8,12.1c27.2,0,38.3-6.7,38.3-6.7
				c0.8-32.1-4.9-45.9,0.4-99c0,0-8.6-19.8-13.2-19.8s-22.6-1.8-22.6-1.8L134.8,233.4z"/>
		</g>
		<path class="st13" d="M193.2,260.9c0,0,0.5-9.3,2.8-11.5"/>
	</g>
	<g>
		<path class="st10" d="M166.6,203.3c0.9-5.5,4.8-13.3,11.9-12.4c4.5,0.6,8,3.7,10.5,7.3c2.2,3.1,1.3,6.1-1.7,14
			c-1,1.6-3.1,4.5-4.7,5.5c-3.9,2.5-9.5,1.2-12.6-2C167,212.4,165.9,207.6,166.6,203.3z"/>
	</g>
	<g>
		<path class="st9" d="M167.6,202.6c1-0.2,0-0.8,0.5,0.1c0.3,0.6,0.4,0.8,1,1c0.6,0.2,0.6,0.7,1.1,1.1c0.7,0.6,1.4-0.2,1.7-0.8
			c0.6-1.2,0.6-2.6,0.4-3.9c-0.1-1-0.4-2.6,0.5-3.3c0.8-0.6,2.6,0.3,3.4,0.5c1.3,0.4,2.6,0.8,3.8,1.2c3.1,0.9,6.3,1.8,9.6,1.3
			c2.8-0.4,5.8-1.9,7.1-4.5c1.6-3.1-1.6-7.3-4.9-7.3c-0.9,0-1.7,0.4-2.5,0.5c-0.3,0.1-0.6,0.1-1,0c-0.7-0.2-1-1-1.4-1.7
			c-1.2-1.9-3.3-2.5-5.5-2.3c-2.5,0.3-4.6,1.4-6.9,2.1c-1.2,0.3-2.3,0-3.5,0.1c-1.3,0-2.6,0.9-3.1,2.1c-1-1-3.2,1.5-3.8,2.2
			c-2.4,3-3.2,7.3-3.3,11c-0.1,3.3,0.5,8.1,4.1,9.4c1.5,0.6,2.5,0.9,2.6-0.5c-0.7-1.5-0.8-4.3-1-5.5c-0.1-1.2,0.2-2.7,1.3-3.1"/>
	</g>
	<path class="st10" d="M179.3,216.4l-0.8,8.3l2.7,0.8c0,0-1.4,3.7-6.2,4.3c-9.6,1.3-16.4-6.1-16.4-6.1l3.2-0.6l4.9-15.3"/>
	<g>
		<path class="st10" d="M169.2,202.6c0-0.7-0.7-1.3-1.3-1.3c-0.7,0-1.3,0.4-1.8,0.9c-2.7,2.7,0.7,9.2,3.4,5.8"/>
	</g>
	<g>
		<path class="st9" d="M187.4,212c-0.4,1-2.1,1.4-3.1,1.5c-4.5,0.5-8.3-2.4-12.6-3c-0.9-0.1-1.8-0.2-2.5,0.4
			c-0.6,0.6-0.7,1.5-0.7,2.3c0,1,0,2,0.1,3c0.1,0.9,0.2,1.8,0.7,2.5c2,3.3,8.5,3.8,11.8,3.6c1.3-0.1,2.7-0.3,3.8-1.1
			c1.5-1.1,1.8-3.1,2.4-4.8C187.9,214.4,187.4,212,187.4,212z"/>
	</g>
	<g>
		<path class="st10" d="M184.1,215.6c-0.1-0.1-0.3-0.2-0.5-0.2c-2.1,0-3.3-0.5-4.9-0.6c-0.3,0-0.6,0-0.8,0c-0.6,0.2-0.9,0.8-1,1.4
			c-0.1,0.6,0.2,1.1,0.7,1.3c1,0.5,2.1,0.7,3.2,0.7c1,0,2.2,0.1,3-0.5C184.1,217.3,184.8,216.1,184.1,215.6z"/>
	</g>
	<path class="st14" d="M164.2,335.2c-22.3-2.8-35.2,24.5-44.4,74c-11.9,64.3-28.6,69.5-36.2,69.1"/>
	<path class="st6" d="M144,339.5c1.9,23.3,20.7,35.8,35.8,34.6l24.7-2.1l-6.2-74.6l-24.7,2.1C158.5,300.8,142,316.3,144,339.5z"/>
	<path class="st15" d="M156.7,338.5c1.9,22.7,16.9,40,33.5,38.6l27.2-2.3l-6.9-82.3l-27.2,2.3C166.7,296.2,154.8,315.7,156.7,338.5z
		"/>
	
		<ellipse transform="matrix(0.9965 -8.310341e-02 8.310341e-02 0.9965 -27.0097 18.7753)" class="st6" cx="212" cy="333.8" rx="30.2" ry="41.3"/>
	<g class="st16">
		<g>
			<path d="M210.8,348.6c0.3,3.4,2.8,5.9,5.7,5.7c2.8-0.2,4.9-3.2,4.6-6.5c-0.3-3.4-2.8-5.9-5.7-5.7
				C212.6,342.3,210.5,345.3,210.8,348.6z"/>
		</g>
		<g>
			<path d="M208.3,319.5c0.3,3.4,2.8,5.9,5.7,5.7c2.8-0.2,4.9-3.2,4.6-6.5c-0.3-3.4-2.8-5.9-5.7-5.7
				C210.1,313.2,208,316.1,208.3,319.5z"/>
		</g>
	</g>
	<g>
		<path class="st15" d="M214.3,323.3c3.1-0.3,38.5-3.2,38.5-3.2c2.3-0.2,4.1-2.3,3.9-4.6l0,0c-0.2-2.4-2.3-4.1-4.6-3.9
			c0,0-35.5,3-38.5,3.2C210.7,314.9,211.2,323.5,214.3,323.3z"/>
		<path class="st15" d="M216.8,352.5c3.1-0.3,38.5-3.2,38.5-3.2c2.3-0.2,4.1-2.3,3.9-4.6l0,0c-0.2-2.4-2.3-4.1-4.6-3.9
			c0,0-35.5,3-38.5,3.2C213.1,344.1,213.7,352.7,216.8,352.5z"/>
	</g>
	<g>
		<g>
			<path class="st10" d="M121.9,268.2c0,0-1.9,19.5,6.8,35.7c7.5,13.9,22.3,31.8,34.2,41.7l2.9-0.7c-4.2-16-17.3-44.4-18.1-55
				c-0.8-10.6-0.6-23-0.8-28.9"/>
		</g>
		<path class="st12" d="M158.7,223.6c0,0-16.9,1-26.6,8.3c-16.8,12.7-13.5,46.8-8.6,63.5c4.9,16.7,28.5,41.7,36.1,47.1
			c1.2,0,4.9-0.3,4.8-3.2c-4.2-13-16.2-47.2-16.2-47.2l1.9-46.2"/>
		<g>
			<path class="st10" d="M164.7,342.6c1.8,0.2,3.6,1.1,5.1,2.3c1.4,1.1,3.1,2.9,3,3.8c-0.2,0.9-2.5-0.8-2.8-0.5
				c-0.3,0.3,3.9,6.7,3.2,7.2c-0.8,0.5-4.4-5.3-4.4-5.3s3.5,6.2,2.1,6.3c-1.1,0.1-4.2-5.7-4.2-5.7s2.6,5.2,1.7,5.4
				c-0.9,0.2-3.3-5-3.3-5s2,4.4,1.2,4.5c-0.4,0-2.3-2.2-3.2-4.9c-0.8-2.6-1.7-4.9-1-7"/>
		</g>
		<path class="st13" d="M152.8,305.8c-2.7-7.8-4.7-13.6-4.7-13.6l3.6-38.7"/>
		<path class="st13" d="M119.5,262.8c-0.1,10.5,1.2,23.5,3.9,32.6c2.4,8,9,18,16.2,26.8"/>
	</g>
	<g>
		<g>
			<path class="st18" d="M148.7,199.8l-7.3-5.9c0,0,3.3-12.1-1.1-16.3c-2.3-2.2-5.2-3.8-8.2-4.9c-6.7-2.5-14.7-3.1-20.7,0.8
				c-4.4,2.9-7.1,7.9-8.3,13.1c-1.1,4.5-1,9.7,1.9,13.4c1.3,1.7,3,2.9,4.9,3.9c5.8,3,21,4.2,27.6-0.3c1.8-1.2,1.7-2.9,2.4-5.5
				L148.7,199.8z"/>
		</g>
		<g>
			<path class="st6" d="M115.1,188.6c0,1.4-0.3,2.5-1,3.2c-0.7,0.8-1.7,1.2-2.9,1.2c-1.3,0-2.3-0.4-3-1.1c-0.7-0.8-1-1.9-1-3.3
				s0.3-2.5,1-3.2c0.7-0.8,1.7-1.1,3-1.1c1.3,0,2.2,0.4,2.9,1.1C114.8,186.2,115.1,187.2,115.1,188.6z M108.6,188.6
				c0,1,0.2,1.8,0.6,2.4c0.4,0.5,1.1,0.8,1.9,0.8c0.8,0,1.5-0.3,1.9-0.8c0.4-0.5,0.6-1.3,0.6-2.4c0-1-0.2-1.8-0.6-2.4
				c-0.4-0.5-1-0.8-1.9-0.8c-0.8,0-1.5,0.3-1.9,0.8C108.8,186.8,108.6,187.6,108.6,188.6z"/>
			<path class="st6" d="M122.2,189.7c0,1.1-0.3,1.9-0.8,2.5c-0.5,0.6-1.3,0.9-2.3,0.9c-0.6,0-1.1-0.1-1.6-0.4
				c-0.5-0.3-0.8-0.7-1.1-1.2c-0.2-0.5-0.4-1.1-0.4-1.8c0-1,0.3-1.9,0.8-2.5c0.5-0.6,1.3-0.9,2.3-0.9c0.9,0,1.7,0.3,2.2,0.9
				C121.9,187.8,122.2,188.6,122.2,189.7z M117.5,189.7c0,1.5,0.6,2.2,1.7,2.2c1.1,0,1.6-0.7,1.6-2.2c0-1.5-0.5-2.2-1.6-2.2
				c-0.6,0-1,0.2-1.3,0.6C117.6,188.4,117.5,189,117.5,189.7z"/>
			<path class="st6" d="M126.7,193c-0.8,0-1.5-0.3-1.9-0.9h-0.1c0.1,0.5,0.1,0.9,0.1,1v2.6h-1.4v-9.3h1.1c0,0.1,0.1,0.4,0.2,0.9h0.1
				c0.4-0.7,1.1-1,1.9-1c0.8,0,1.4,0.3,1.9,0.9c0.4,0.6,0.7,1.4,0.7,2.5s-0.2,1.9-0.7,2.5C128.1,192.7,127.5,193,126.7,193z
				 M126.4,187.5c-0.5,0-0.9,0.2-1.2,0.5c-0.3,0.3-0.4,0.8-0.4,1.5v0.2c0,0.8,0.1,1.4,0.4,1.7c0.2,0.4,0.7,0.5,1.2,0.5
				c0.5,0,0.8-0.2,1.1-0.6c0.3-0.4,0.4-0.9,0.4-1.7c0-0.7-0.1-1.3-0.4-1.6C127.2,187.6,126.8,187.5,126.4,187.5z"/>
			<path class="st6" d="M134.8,191.1c0,0.6-0.2,1.1-0.7,1.4c-0.5,0.3-1.1,0.5-2,0.5c-0.9,0-1.6-0.1-2.1-0.4v-1.2
				c0.8,0.3,1.5,0.5,2.1,0.5c0.8,0,1.3-0.3,1.3-0.8c0-0.2,0-0.3-0.1-0.4c-0.1-0.1-0.2-0.2-0.5-0.3c-0.2-0.1-0.5-0.2-0.9-0.4
				c-0.7-0.3-1.2-0.6-1.5-0.9c-0.3-0.3-0.4-0.7-0.4-1.1c0-0.6,0.2-1,0.7-1.3c0.4-0.3,1.1-0.5,1.8-0.5c0.8,0,1.5,0.2,2.2,0.5l-0.4,1
				c-0.7-0.3-1.3-0.4-1.8-0.4c-0.7,0-1.1,0.2-1.1,0.6c0,0.2,0.1,0.4,0.3,0.5s0.6,0.3,1.2,0.6c0.5,0.2,0.9,0.4,1.2,0.6
				c0.2,0.2,0.4,0.4,0.5,0.6C134.8,190.5,134.8,190.8,134.8,191.1z"/>
			<path class="st6" d="M135.8,192.2c0-0.3,0.1-0.5,0.2-0.7c0.2-0.2,0.4-0.2,0.6-0.2c0.3,0,0.5,0.1,0.6,0.2c0.1,0.2,0.2,0.4,0.2,0.6
				c0,0.3-0.1,0.5-0.2,0.7c-0.1,0.2-0.4,0.2-0.6,0.2c-0.3,0-0.5-0.1-0.6-0.2C135.8,192.7,135.8,192.5,135.8,192.2z M137.1,190.3h-1
				l-0.3-5.9h1.6L137.1,190.3z"/>
		</g>
	</g>
</g>
</svg>
