<?xml version="1.0" encoding="utf-8"?>
<!-- Generator: Adobe Illustrator 23.0.0, SVG Export Plug-In . SVG Version: 6.00 Build 0)  -->
<svg version="1.1" id="Capa_1" xmlns="http://www.w3.org/2000/svg" xmlns:xlink="http://www.w3.org/1999/xlink" x="0px" y="0px"
	 viewBox="0 0 512 512" style="enable-background:new 0 0 512 512;" xml:space="preserve">
<style type="text/css">
	.st0{fill:#FFFFFF;}
</style>
<g>
	<g>
		<g>
			<circle class="st0" cx="370" cy="346" r="20"/>
			<path class="st0" d="M460,362c11,0,20-9,20-20v-74c0-44.1-35.9-80-80-80h-24v-70.5C376,52.7,322.1,0,256,0S136,52.7,136,117.5
				V188h-24c-44.1,0-80,35.9-80,80v164c0,44.1,35.9,80,80,80h288c44.1,0,80-35.9,80-80c0-11-9-20-20-20s-20,9-20,20
				c0,22.1-17.9,40-40,40H112c-22.1,0-40-17.9-40-40V268c0-22.1,17.9-40,40-40h288c22.1,0,40,17.9,40,40v74C440,353,449,362,460,362
				z M336,188H176v-70.5c0-42.7,35.9-77.5,80-77.5s80,34.8,80,77.5V188z"/>
			<circle class="st0" cx="219" cy="346" r="20"/>
			<circle class="st0" cx="144" cy="346" r="20"/>
			<circle class="st0" cx="294" cy="346" r="20"/>
		</g>
	</g>
</g>
</svg>
