<svg xmlns="http://www.w3.org/2000/svg" width="23.82" height="30" viewBox="0 0 23.82 30">
  <defs>
    <style>
      .cls-1 {
        fill: #fff;
        fill-rule: evenodd;
      }
    </style>
  </defs>
  <path id="Productive_Maintenance_Icon" data-name="Productive Maintenance Icon" class="cls-1" d="M2989.84,512.673h9.31a1.632,1.632,0,0,0,1.04-1.035V509.57h-3.1v-1.035c0-.652-0.15-1.03-0.8-1.03h-3.58c-0.65,0-.8.378-0.8,1.03v1.035h-3.1v2.068A1.639,1.639,0,0,0,2989.84,512.673Zm11.38-3.1v2.068a2.314,2.314,0,0,1-2.07,2.069h-9.31a2.313,2.313,0,0,1-2.06-2.069V509.57h-5.18v25.56a2.367,2.367,0,0,0,2.38,2.362h19.04a2.367,2.367,0,0,0,2.38-2.362V509.57h-5.18Zm2.07,24.826h-17.58V516.811h17.58V534.4Zm-14.03-15.529h10.48a1.5,1.5,0,0,1,1.5,1.5v0.106a1.5,1.5,0,0,1-1.5,1.5h-10.48a1.5,1.5,0,0,1-1.5-1.5v-0.106A1.5,1.5,0,0,1,2989.26,518.867Zm0,5.186h10.48a1.5,1.5,0,0,1,1.5,1.5v0.105a1.5,1.5,0,0,1-1.5,1.5h-10.48a1.5,1.5,0,0,1-1.5-1.5v-0.105A1.5,1.5,0,0,1,2989.26,524.053Zm0,5.185h10.48a1.5,1.5,0,0,1,1.5,1.5v0.076a1.5,1.5,0,0,1-1.5,1.5h-10.48a1.5,1.5,0,0,1-1.5-1.5v-0.076A1.5,1.5,0,0,1,2989.26,529.238Z" transform="translate(-2982.59 -507.5)"/>
</svg>
