<svg xmlns="http://www.w3.org/2000/svg" viewBox="0 0 512 372.34"><defs><style>.cls-1{fill:#607e9a;}</style></defs><title>Reset0</title><g id="Layer_2" data-name="Layer 2"><g id="Layer_1-2" data-name="Layer 1"><path class="cls-1" d="M69.82,186.17H0l93.1,93.09,93.1-93.09H116.38A140,140,0,0,1,256,46.54a149.88,149.88,0,0,1,65.16,16.29l34.9-34.89A208,208,0,0,0,256,0C153.3.28,70.1,83.46,69.82,186.17Zm325.8,0A140,140,0,0,1,256,325.8a149.75,149.75,0,0,1-65.16-16.3l-34.9,34.9A208.1,208.1,0,0,0,256,372.34c102.7-.3,185.88-83.48,186.18-186.17H512l-93.1-93.1-93.1,93.1Z"/></g></g></svg>