<?xml version="1.0" encoding="utf-8"?>
<!-- Generator: Adobe Illustrator 23.0.0, SVG Export Plug-In . SVG Version: 6.00 Build 0)  -->
<svg version="1.1" id="Capa_1" xmlns="http://www.w3.org/2000/svg" xmlns:xlink="http://www.w3.org/1999/xlink" x="0px" y="0px"
	 viewBox="0 0 165 408" style="enable-background:new 0 0 165 408;" xml:space="preserve">
<style type="text/css">
	.st0{fill:#607E9A;}
</style>
<g>
	<g id="more-vert">
		<path class="st0" d="M81,102c28.1,0,51-22.9,51-51S109.1,0,81,0S30,23,30,51S52.9,102,81,102z M81,153c-28.1,0-51,22.9-51,51
			s22.9,51,51,51s51-22.9,51-51S109.1,153,81,153z M81,306c-28.1,0-51,23-51,51s22.9,51,51,51s51-23,51-51S109.1,306,81,306z"/>
	</g>
</g>
</svg>
