<?xml version="1.0" encoding="utf-8"?>
<!-- Generator: Adobe Illustrator 23.0.0, SVG Export Plug-In . SVG Version: 6.00 Build 0)  -->
<svg version="1.1" id="Capa_1" xmlns="http://www.w3.org/2000/svg" xmlns:xlink="http://www.w3.org/1999/xlink" x="0px" y="0px"
	 viewBox="0 0 14 14" style="enable-background:new 0 0 14 14;" xml:space="preserve">
<style type="text/css">
	.st0{fill:#607E9A;}
</style>
<g>
	<path class="st0" d="M7,0.9c-3.9,0-7,2.5-7,5.5c0,1.4,0.7,2.7,1.9,3.7c0,1-0.2,2.2-0.9,2.9c1.3,0,2.7-0.9,3.5-1.5
		c0.8,0.2,1.7,0.4,2.6,0.4c3.9,0,7-2.5,7-5.5S10.9,0.9,7,0.9z M4,7.9c-0.6,0-1-0.4-1-1s0.4-1,1-1s1,0.4,1,1S4.6,7.9,4,7.9z M7,7.9
		c-0.6,0-1-0.4-1-1s0.4-1,1-1s1,0.4,1,1S7.6,7.9,7,7.9z M10,7.9c-0.6,0-1-0.4-1-1s0.4-1,1-1s1,0.4,1,1S10.6,7.9,10,7.9z"/>
</g>
</svg>
