<svg xmlns="http://www.w3.org/2000/svg" width="66.75" height="50" viewBox="0 0 66.75 50">
  <defs>
    <style>
      .cls-1 {
        fill: #002d5b;
        fill-rule: evenodd;
      }
    </style>
  </defs>
  <path id="Ellipse_3_copy_2" data-name="Ellipse 3 copy 2" class="cls-1" d="M61.319,8.832H59.928a1.39,1.39,0,0,0-1.391,1.389v6.945a2.782,2.782,0,1,1-3.715-2.6,1.4,1.4,0,0,0,.933-1.312V1.887a1.391,1.391,0,0,0-2.782,0V8.832H18.2a1.39,1.39,0,0,0-1.391,1.389v6.945a2.782,2.782,0,1,1-3.715-2.6,1.4,1.4,0,0,0,.933-1.312V1.887a1.391,1.391,0,0,0-2.782,0V8.832H5.68A5.56,5.56,0,0,0,.116,14.388V44.946A5.56,5.56,0,0,0,5.68,50.5H61.319a5.56,5.56,0,0,0,5.564-5.556V14.388A5.56,5.56,0,0,0,61.319,8.832ZM56.867,32.975a1.392,1.392,0,0,1-.3.453L51,38.983a1.39,1.39,0,0,1-1.967-1.964l3.19-3.185H41.673a1.389,1.389,0,1,1,0-2.778H52.225l-3.19-3.185A1.39,1.39,0,1,1,51,25.907l5.562,5.554A1.392,1.392,0,0,1,56.867,32.975ZM17.25,22.938a3.844,3.844,0,1,1-3.844,3.844A3.844,3.844,0,0,1,17.25,22.938Zm0,11.094a3.844,3.844,0,1,1-3.844,3.844A3.844,3.844,0,0,1,17.25,34.031ZM27.719,22.938a3.844,3.844,0,1,1-3.844,3.844A3.844,3.844,0,0,1,27.719,22.938Zm0,11.094a3.844,3.844,0,1,1-3.844,3.844A3.844,3.844,0,0,1,27.719,34.031Z" transform="translate(-0.125 -0.5)"/>
</svg>
