<svg xmlns="http://www.w3.org/2000/svg" width="63.68" height="50" viewBox="0 0 63.68 50">
  <defs>
    <style>
      .cls-1 {
        fill: #002d5b;
        fill-rule: evenodd;
      }
    </style>
  </defs>
  <path id="Forma_1" data-name="Forma 1" class="cls-1" d="M4697.05,498.867h-59.1a2.314,2.314,0,0,0-2.28,2.274v9.093a2.314,2.314,0,0,0,2.28,2.274h59.1a2.314,2.314,0,0,0,2.28-2.274v-9.093A2.314,2.314,0,0,0,4697.05,498.867Zm-2.27,9.094h-22.73v-4.547h22.73v4.547h0Zm2.27-27.281h-59.1a2.314,2.314,0,0,0-2.28,2.273v9.093a2.314,2.314,0,0,0,2.28,2.274h59.1a2.314,2.314,0,0,0,2.28-2.274v-9.093A2.314,2.314,0,0,0,4697.05,480.68Zm-2.27,9.093h-36.37v-4.546h36.37v4.546Zm3.87-26.606a2.181,2.181,0,0,0-1.6-.675h-59.1a2.314,2.314,0,0,0-2.28,2.274v9.093a2.312,2.312,0,0,0,2.28,2.273h59.1a2.312,2.312,0,0,0,2.28-2.273v-9.093A2.19,2.19,0,0,0,4698.65,463.167Zm-3.87,8.419h-13.64v-4.547h13.64v4.547Z" transform="translate(-4635.66 -462.5)"/>
</svg>
