<svg xmlns="http://www.w3.org/2000/svg" width="160.014" height="200.016" viewBox="0 0 160.014 200.016">
  <g id="Vector_Smart_Object" data-name="Vector Smart Object" transform="translate(-178.136 -171.523)">
    <g id="Group_25" data-name="Group 25">
      <path id="Path_241" data-name="Path 241" d="M290.164,272.615a7.181,7.181,0,1,0-.1-1.2,6.906,6.906,0,0,0,.1,1.2ZM238.511,301.5a7.192,7.192,0,1,0,6.594-4.316,7.2,7.2,0,0,0-6.594,4.316Zm96.861-108.054V358.8a9.97,9.97,0,0,1-9.969,9.964H190.883a9.969,9.969,0,0,1-9.969-9.964V193.442a9.969,9.969,0,0,1,9.969-9.964h24.622v7.96h90.256v-7.96H325.4a9.97,9.97,0,0,1,9.969,9.964ZM303.619,344.588V290.7H290.886v53.892Zm-26.071,0V307H264.815v37.586Zm.823-56.8a7.19,7.19,0,1,0-7.189,7.189,7.19,7.19,0,0,0,7.189-7.189Zm-26.9,56.8V323.744H238.739v20.844Zm-.514-97.554V222.121H205.542v24.914ZM225.4,344.588V309.007H212.666v35.581Zm.825-55.017a7.19,7.19,0,1,0-7.191,7.185,7.188,7.188,0,0,0,7.191-7.185Zm0,0" fill="#f7d360"/>
      <path id="Path_242" data-name="Path 242" d="M305.761,183.478v7.96H215.506V174.3h90.256Zm0,0" fill="#e58e13"/>
      <rect id="Rectangle_24" data-name="Rectangle 24" width="12.732" height="53.892" transform="translate(290.886 290.695)" fill="#d5dced"/>
      <path id="Path_243" data-name="Path 243" d="M290.164,272.615a6.906,6.906,0,0,1-.1-1.2,7.2,7.2,0,1,1,.1,1.2Zm0,0" fill="#c7cfe2"/>
      <rect id="Rectangle_25" data-name="Rectangle 25" width="12.732" height="37.586" transform="translate(264.815 307.001)" fill="#d5dced"/>
      <path id="Path_244" data-name="Path 244" d="M278.37,287.784a7.19,7.19,0,1,1-7.189-7.191,7.19,7.19,0,0,1,7.189,7.191Zm0,0" fill="#c7cfe2"/>
      <rect id="Rectangle_26" data-name="Rectangle 26" width="12.732" height="20.844" transform="translate(238.739 323.744)" fill="#d5dced"/>
      <rect id="Rectangle_27" data-name="Rectangle 27" width="45.416" height="24.914" transform="translate(205.542 222.12)" fill="#d5dced"/>
      <path id="Path_245" data-name="Path 245" d="M238.511,301.5a7.2,7.2,0,1,1-.6,2.876,7.2,7.2,0,0,1,.6-2.876Zm0,0" fill="#c7cfe2"/>
      <rect id="Rectangle_28" data-name="Rectangle 28" width="12.732" height="35.581" transform="translate(212.666 309.007)" fill="#d5dced"/>
      <path id="Path_246" data-name="Path 246" d="M219.032,282.38a7.188,7.188,0,1,1-7.189,7.191,7.19,7.19,0,0,1,7.189-7.191Zm0,0" fill="#c7cfe2"/>
      <path id="Path_247" data-name="Path 247" d="M297.252,261.443a9.981,9.981,0,0,0-9.969,9.967c0,.025,0,.047,0,.073l-9.58,8.782a9.956,9.956,0,0,0-16.015,10.559l-8.763,7.392a9.943,9.943,0,0,0-15.138-.608l-8.962-6.238a10,10,0,1,0-2.535,5l9,6.27a9.965,9.965,0,1,0,19.779,1.729c0-.226-.02-.447-.034-.67l9.781-8.251a9.956,9.956,0,0,0,15.928-10.439l8.439-7.735a9.969,9.969,0,1,0,8.063-15.834Zm-78.22,32.535a4.41,4.41,0,1,1,4.413-4.407,4.411,4.411,0,0,1-4.413,4.407Zm26.073,14.807a4.412,4.412,0,1,1,4.371-3.812,4.419,4.419,0,0,1-4.371,3.812Zm26.076-16.59a4.412,4.412,0,1,1,4.411-4.411,4.411,4.411,0,0,1-4.411,4.411Zm26.071-16.371a4.4,4.4,0,0,1-4.352-3.7,4.089,4.089,0,0,1-.06-.714,4.413,4.413,0,1,1,4.413,4.413Zm0,0"/>
      <path id="Path_248" data-name="Path 248" d="M303.619,287.917H290.886a2.778,2.778,0,0,0-2.778,2.778v53.892a2.778,2.778,0,0,0,2.778,2.778h12.733a2.778,2.778,0,0,0,2.778-2.778V290.7a2.779,2.779,0,0,0-2.778-2.778Zm-2.778,53.892h-7.176V293.473h7.176Zm0,0"/>
      <path id="Path_249" data-name="Path 249" d="M277.548,304.223H264.815A2.778,2.778,0,0,0,262.037,307v37.586a2.777,2.777,0,0,0,2.778,2.778h12.733a2.778,2.778,0,0,0,2.778-2.778V307a2.779,2.779,0,0,0-2.778-2.778ZM274.77,341.81h-7.176v-32.03h7.176Zm0,0"/>
      <path id="Path_250" data-name="Path 250" d="M251.471,320.966H238.739a2.778,2.778,0,0,0-2.778,2.778v20.844a2.778,2.778,0,0,0,2.778,2.778h12.732a2.778,2.778,0,0,0,2.778-2.778V323.744a2.779,2.779,0,0,0-2.778-2.778Zm-2.778,20.844h-7.176V326.522h7.176Zm0,0"/>
      <path id="Path_251" data-name="Path 251" d="M225.4,306.229H212.666a2.778,2.778,0,0,0-2.778,2.778v35.581a2.778,2.778,0,0,0,2.778,2.778H225.4a2.776,2.776,0,0,0,2.778-2.778V309.007a2.776,2.776,0,0,0-2.778-2.778Zm-2.778,35.581h-7.176V311.785h7.176Zm0,0"/>
      <path id="Path_252" data-name="Path 252" d="M305.761,171.523H215.506a2.778,2.778,0,0,0-2.778,2.778v6.4H190.883a12.759,12.759,0,0,0-12.747,12.742V358.8a12.759,12.759,0,0,0,12.747,12.742H325.4A12.759,12.759,0,0,0,338.15,358.8V193.442A12.759,12.759,0,0,0,325.4,180.7H308.539v-6.4a2.778,2.778,0,0,0-2.778-2.778Zm-87.478,5.556h84.7V188.66h-84.7ZM325.4,186.256a7.2,7.2,0,0,1,7.191,7.186V358.8a7.2,7.2,0,0,1-7.191,7.186H190.883a7.2,7.2,0,0,1-7.191-7.186V193.442a7.2,7.2,0,0,1,7.191-7.186h21.844v5.182a2.778,2.778,0,0,0,2.778,2.778h90.256a2.778,2.778,0,0,0,2.778-2.778v-5.182Zm0,0"/>
      <path id="Path_253" data-name="Path 253" d="M205.542,249.812h45.416a2.779,2.779,0,0,0,2.778-2.778V222.121a2.778,2.778,0,0,0-2.778-2.778H205.542a2.777,2.777,0,0,0-2.778,2.778v24.914a2.778,2.778,0,0,0,2.778,2.778ZM208.32,224.9h39.86v19.358H208.32Zm0,0"/>
      <path id="Path_254" data-name="Path 254" d="M310.744,244.256h-1.926a2.778,2.778,0,0,0,0,5.556h1.926a2.778,2.778,0,1,0,0-5.556Zm0,0"/>
      <path id="Path_255" data-name="Path 255" d="M274.746,249.812h21.192a2.778,2.778,0,0,0,0-5.556H274.746a2.778,2.778,0,1,0,0,5.556Zm0,0"/>
      <path id="Path_256" data-name="Path 256" d="M286.609,222.121a2.777,2.777,0,0,0,2.778,2.778h21.358a2.778,2.778,0,1,0,0-5.556H289.387a2.777,2.777,0,0,0-2.778,2.778Zm0,0"/>
      <path id="Path_257" data-name="Path 257" d="M274.746,224.9h1.76a2.778,2.778,0,1,0,0-5.556h-1.76a2.778,2.778,0,1,0,0,5.556Zm0,0"/>
      <path id="Path_258" data-name="Path 258" d="M229.345,270.184a2.778,2.778,0,0,0,2.778,2.778h32.724a2.778,2.778,0,1,0,0-5.556H232.123a2.777,2.777,0,0,0-2.778,2.778Zm0,0"/>
      <path id="Path_259" data-name="Path 259" d="M218.307,267.406a2.778,2.778,0,1,0,0,5.556h3.648a2.778,2.778,0,1,0,0-5.556Zm0,0"/>
      <path id="Path_260" data-name="Path 260" d="M211.089,270.184a2.779,2.779,0,0,0-2.778-2.778h-2.769a2.778,2.778,0,1,0,0,5.556h2.769a2.779,2.779,0,0,0,2.778-2.778Zm0,0"/>
    </g>
  </g>
</svg>
