<svg xmlns="http://www.w3.org/2000/svg" width="200" height="200" viewBox="0 0 200 200">
  <g id="Vector_Smart_Object6" data-name="Vector Smart Object6" transform="translate(200 200) rotate(180)">
    <path id="Path_161" data-name="Path 161" d="M100,200A100,100,0,1,1,200,100,100.114,100.114,0,0,1,100,200Z" fill="#f7d360"/>
    <g id="Group_15" data-name="Group 15">
      <path id="Path_162" data-name="Path 162" d="M176.667,103.333h0A3.335,3.335,0,0,1,173.333,100c.007-20.593-9.057-39.823-25.52-54.154a3.332,3.332,0,1,1,4.377-5.027C170.13,56.433,180.007,77.45,180,100A3.332,3.332,0,0,1,176.667,103.333Z" fill="#ffc500"/>
      <path id="Path_163" data-name="Path 163" d="M126.59,31.4a3.327,3.327,0,0,1-1.153-.207A73.266,73.266,0,0,0,100,26.667,3.333,3.333,0,0,1,100,20h0a79.976,79.976,0,0,1,27.743,4.94A3.335,3.335,0,0,1,126.59,31.4Z" fill="#ffc500"/>
      <path id="Path_164" data-name="Path 164" d="M50,160a3.322,3.322,0,0,1-2.14-.777C29.627,143.957,19.993,123.477,20,100a3.332,3.332,0,0,1,3.333-3.333h0A3.335,3.335,0,0,1,26.667,100c-.007,21.443,8.8,40.154,25.473,54.11A3.334,3.334,0,0,1,50,160Z" fill="#ffc500"/>
      <path id="Path_165" data-name="Path 165" d="M100,180a79.953,79.953,0,0,1-26.213-4.39,3.334,3.334,0,0,1,2.183-6.3A73.281,73.281,0,0,0,100,173.333,3.333,3.333,0,0,1,100,180Z" fill="#ffc500"/>
    </g>
    <g id="Group_16" data-name="Group 16">
      <path id="Path_166" data-name="Path 166" d="M122.712,70v60a3.335,3.335,0,0,1-5.14,2.8l-46.667-30a3.463,3.463,0,0,1,0-5.607l46.667-30a3.335,3.335,0,0,1,5.14,2.8Z" fill="#fff"/>
    </g>
    <g id="Group_17" data-name="Group 17">
      <path id="Path_167" data-name="Path 167" d="M100,200A100,100,0,1,1,200,100,100.114,100.114,0,0,1,100,200ZM100,6.667A93.333,93.333,0,1,0,193.333,100,93.44,93.44,0,0,0,100,6.667Z"/>
      <path id="Path_168" data-name="Path 168" d="M176.667,103.333h0A3.333,3.333,0,0,1,173.333,100c.007-20.59-9.06-39.823-25.52-54.15a3.333,3.333,0,0,1,4.373-5.03C170.13,56.433,180.007,77.45,180,100A3.335,3.335,0,0,1,176.667,103.333Z"/>
      <path id="Path_169" data-name="Path 169" d="M126.59,31.4a3.293,3.293,0,0,1-1.157-.21A73.329,73.329,0,0,0,100,26.667,3.333,3.333,0,0,1,100,20h0a79.94,79.94,0,0,1,27.743,4.943,3.333,3.333,0,0,1-1.154,6.46Z"/>
      <path id="Path_170" data-name="Path 170" d="M50,160a3.322,3.322,0,0,1-2.14-.777C29.627,143.96,19.993,123.48,20,100a3.335,3.335,0,0,1,3.333-3.333h0A3.335,3.335,0,0,1,26.667,100c-.007,21.443,8.8,40.154,25.473,54.11A3.334,3.334,0,0,1,50,160Z"/>
      <path id="Path_171" data-name="Path 171" d="M100,180a79.921,79.921,0,0,1-26.21-4.39,3.333,3.333,0,0,1,2.18-6.3A73.268,73.268,0,0,0,100,173.333,3.333,3.333,0,0,1,100,180Z"/>
      <path id="Path_172" data-name="Path 172" d="M122.712,70v60a3.333,3.333,0,0,1-5.137,2.8l-46.667-30a3.463,3.463,0,0,1,0-5.61l46.667-30A3.333,3.333,0,0,1,122.712,70Zm-6.667,53.893V76.108L78.875,100Z"/>
    </g>
  </g>
</svg>
