<svg xmlns="http://www.w3.org/2000/svg" xmlns:xlink="http://www.w3.org/1999/xlink" width="272.435" height="199.999" viewBox="0 0 272.435 199.999">
  <defs>
    <clipPath id="clip-path">
      <rect id="crop" width="272.435" height="199.999" transform="translate(0 58.239)" fill="none"/>
    </clipPath>
  </defs>
  <g id="Vector_Smart_Object_copy_3" data-name="Vector Smart Object copy 3" transform="translate(0 -58.239)" clip-path="url(#clip-path)">
    <path id="Path_173" data-name="Path 173" d="M67.6,156.1c-1.2-16.449-13.678-29.858-30.55-29.858S7.692,139.655,6.5,156.1c-.713,9.807,0,25.592-4.364,34.123,0,0,4.364,8.531,20.459,12.808l29-.012c16.007-4.265,20.371-12.8,20.371-12.8C67.6,181.7,68.308,165.911,67.6,156.1Z" fill="#694b4b"/>
    <path id="Path_174" data-name="Path 174" d="M32.681,156.1c-16.819-8.219-13.357-24.322-1.375-29.305C17.406,129.45,7.551,141.585,6.5,156.1c-.713,9.807,0,25.592-4.364,34.123,0,0,4.364,8.531,20.459,12.808l13.784-.005Z" fill="#5a4146"/>
    <path id="Path_175" data-name="Path 175" d="M69.086,213.291l-14.123-6.9a8.514,8.514,0,0,1-4.825-7.631v-12.8H23.953v12.8a8.513,8.513,0,0,1-4.825,7.63L5,213.29a12.769,12.769,0,0,0-7.237,11.445v29.472H76.324V224.736A12.769,12.769,0,0,0,69.086,213.291Z" fill="#e6af78"/>
    <path id="Path_176" data-name="Path 176" d="M76.324,224.736a12.77,12.77,0,0,0-7.238-11.445l-14.123-6.9a8.648,8.648,0,0,1-2.152-1.526L47.8,210.312a14.4,14.4,0,0,1-21.512,0l-5.009-5.449a8.674,8.674,0,0,1-2.152,1.526L5,213.291a12.768,12.768,0,0,0-7.237,11.444v29.473H76.324V224.736Z" fill="#d5dced"/>
    <path id="Path_177" data-name="Path 177" d="M37.046,194.493h0a26.269,26.269,0,0,1-23.1-13.537,12.311,12.311,0,0,1,4.152-15.923,33.718,33.718,0,0,0,3.04-2.353,24.677,24.677,0,0,0,5.978-7.7,4.327,4.327,0,0,1,4.9-2.326,75.76,75.76,0,0,1,29.665,14.858,4.028,4.028,0,0,1,1.479,3.378A25.952,25.952,0,0,1,37.046,194.493Z" fill="#f0c087"/>
    <path id="Path_178" data-name="Path 178" d="M61.669,167.514a75.758,75.758,0,0,0-29.643-14.85A4.349,4.349,0,0,0,27.105,155a24.4,24.4,0,0,1-3.988,5.69l0,.014a23.083,23.083,0,0,1-1.981,1.976,30.353,30.353,0,0,1-2.917,2.267c-6.159,4.164-7.084,11.8-3.31,17.6a26.287,26.287,0,0,0,18.167,11.581c-5.225-3.474-9.123-8.184-9.123-16.7v-3.3c.991-.715,1.989-1.429,2.993-2.3a34.175,34.175,0,0,0,6.241-7.2,66.324,66.324,0,0,1,22.746,12.1c.827.709,1.987,1.71,4.388,3.912,1.54-2.375,2.615-7,2.832-9.753A4.034,4.034,0,0,0,61.669,167.514Z" fill="#e6af78"/>
    <g id="Group_18" data-name="Group 18">
      <path id="Path_179" data-name="Path 179" d="M.428,217.047a12.581,12.581,0,0,0-2.661,7.689v29.472H15.225V232.715a8.46,8.46,0,0,0-3.276-6.661Z" fill="#c7cfe2"/>
      <path id="Path_180" data-name="Path 180" d="M73.664,217.047a12.581,12.581,0,0,1,2.661,7.689v29.472H58.867V232.715a8.46,8.46,0,0,1,3.276-6.661Z" fill="#c7cfe2"/>
    </g>
    <path id="Path_181" data-name="Path 181" d="M194.159,143.308V146.3a33.413,33.413,0,0,0,1.792,10.79l6.937,20.339H215.98V130.512h-8.728A12.946,12.946,0,0,0,194.159,143.308Z" fill="#5a4146"/>
    <path id="Path_182" data-name="Path 182" d="M254.252,151.02l-7.721,26.411-34.914-29.858a8.631,8.631,0,0,1-8.728-8.531h0a12.947,12.947,0,0,1,13.093-12.8h39.278v17.742A25.028,25.028,0,0,1,254.252,151.02Z" fill="#694b4b"/>
    <rect id="Rectangle_15" data-name="Rectangle 15" width="26.187" height="25.594" transform="translate(211.616 190.227)" fill="#e6af78"/>
    <path id="Path_183" data-name="Path 183" d="M258.856,206.454,237.8,200.575l-13.091,15.245-13.093-15.245-21.054,5.879a12.842,12.842,0,0,0-9.5,12.3v35.45h87.285v-35.45A12.842,12.842,0,0,0,258.856,206.454Z" fill="#d5dced"/>
    <path id="Path_184" data-name="Path 184" d="M224.709,194.493h0c-14.462,0-26.186-11.458-26.186-25.592h0a20.363,20.363,0,0,1,6.172-14.563l4.3-4.2a8.731,8.731,0,0,1,6.336-2.507c13.951.43,26.3,3.351,33.051,9.794a8.323,8.323,0,0,1,2.515,6.041V168.9C250.9,183.034,239.171,194.493,224.709,194.493Z" fill="#f0c087"/>
    <path id="Path_185" data-name="Path 185" d="M211.616,168.9a8.629,8.629,0,0,1,9.252-8.518c8.811.549,21.884,1.988,29.9,5.759-.262-1.8-1.053-7.437-2.394-8.717-6.75-6.443-19.1-9.364-33.05-9.794h0a8.733,8.733,0,0,0-6.336,2.507l-4.3,4.2a20.36,20.36,0,0,0-6.172,14.563h0a25.679,25.679,0,0,0,18.93,24.575,25.032,25.032,0,0,1-5.837-16.044V168.9Z" fill="#e6af78"/>
    <path id="Path_186" data-name="Path 186" d="M250.895,231.467a12.651,12.651,0,0,1,3.835-9.048l11.234-10.98a12.548,12.548,0,0,1,2.388,7.318v35.45H250.895Z" fill="#c7cfe2"/>
    <path id="Path_187" data-name="Path 187" d="M195.761,207.47l-36.515-12.977-26.186,8.531-26.186-8.531L70.359,207.47A17.086,17.086,0,0,0,58.867,223.5v30.7H207.252V223.5A17.086,17.086,0,0,0,195.761,207.47Z" fill="#ff507d"/>
    <path id="Path_188" data-name="Path 188" d="M202.555,211.88a16.834,16.834,0,0,1,4.7,11.625v30.7H181.066v-14.26a16.868,16.868,0,0,1,5.113-12.064Z" fill="#d23c69"/>
    <path id="Path_189" data-name="Path 189" d="M181.066,106.529V70.8a8.631,8.631,0,0,0-8.728-8.531H119.966c-19.282,0-34.914,15.278-34.914,34.123v10.14a41.768,41.768,0,0,0,2.24,13.488l1.453,4.259a12.538,12.538,0,0,1,.672,4.047v2.189H176.7v-2.189a12.538,12.538,0,0,1,.672-4.047l1.453-4.259A41.766,41.766,0,0,0,181.066,106.529Z" fill="#5a4146"/>
    <path id="Path_190" data-name="Path 190" d="M106.874,79.594A17.533,17.533,0,0,0,124.6,96.923h2.455l1.185,33.59H176.7v-2.189a12.54,12.54,0,0,1,.672-4.047l1.453-4.259a41.769,41.769,0,0,0,2.24-13.488V70.8a8.631,8.631,0,0,0-8.728-8.531H124.6A17.533,17.533,0,0,0,106.874,79.594Z" fill="#694b4b"/>
    <rect id="Rectangle_16" data-name="Rectangle 16" width="52.369" height="38.386" transform="translate(106.872 164.633)" fill="#e6af78"/>
    <path id="Path_191" data-name="Path 191" d="M106.874,183.939a57.665,57.665,0,0,0,52.371,0v-19.3H106.874v19.3Z" fill="#d29b6e"/>
    <g id="Group_19" data-name="Group 19">
      <path id="Path_192" data-name="Path 192" d="M133.06,203.023l-13.919,13.6a4.431,4.431,0,0,1-6.563-.437L98.145,197.6l3.775-7.775a4.413,4.413,0,0,1,6.232-1.8Z" fill="#d23c69"/>
      <path id="Path_193" data-name="Path 193" d="M133.06,203.023l13.919,13.6a4.431,4.431,0,0,0,6.563-.437L167.974,197.6l-3.775-7.775a4.413,4.413,0,0,0-6.232-1.8Z" fill="#d23c69"/>
    </g>
    <path id="Path_194" data-name="Path 194" d="M133.06,177.431h0c-24.1,0-43.643-19.1-43.643-42.654v-4.265l7.263-4.732a12.722,12.722,0,0,0,5.83-10.647V100.655s34.915-12.8,61.1,8.531v5.945a12.725,12.725,0,0,0,5.83,10.649l7.262,4.732v4.265C176.7,158.334,157.163,177.431,133.06,177.431Z" fill="#f0c087"/>
    <path id="Path_195" data-name="Path 195" d="M63.565,211.88a16.834,16.834,0,0,0-4.7,11.625v30.7H85.053v-14.26a16.868,16.868,0,0,0-5.113-12.064Z" fill="#d23c69"/>
    <path id="Path_196" data-name="Path 196" d="M123.279,110.907c9.49-1.163,26.1-1.831,40.33,4.224v-5.945c-26.186-21.328-61.1-8.531-61.1-8.531v14.478a12.721,12.721,0,0,1-5.83,10.647l-7.262,4.732v4.265c0,21.809,16.757,39.763,38.369,42.313h0A41.975,41.975,0,0,1,115.6,147.574V119.38A8.607,8.607,0,0,1,123.279,110.907Z" fill="#e6af78"/>
    <path id="Path_197" data-name="Path 197" d="M235.965,155.406a4.139,4.139,0,0,0,1.823.422,4.1,4.1,0,0,0,3.655-2.207,3.949,3.949,0,0,0-1.826-5.355c-9.485-4.635-27.269-4.688-28.022-4.688a3.992,3.992,0,1,0,0,7.982C216.184,151.56,229.508,152.251,235.965,155.406Z"/>
    <path id="Path_198" data-name="Path 198" d="M259.974,205.085l-16.864-4.709a1.679,1.679,0,0,1-1.236-1.6v-5.5a30.555,30.555,0,0,0,3.9-3.129,29.037,29.037,0,0,0,9.194-21.239v-7.591l1.631-3.187a24.989,24.989,0,0,0,2.735-11.326V126.234a4.038,4.038,0,0,0-4.083-3.991H215.961c-14.288,0-25.913,11.361-25.913,25.326v.238a20.776,20.776,0,0,0,2.275,9.418l2.091,4.088v6.518a30.923,30.923,0,0,0,13.1,25.176v5.766c0,.889,0,1.257-3.372,2.2l-8.229,2.3-23.8-8.459A3.932,3.932,0,0,0,171,191.754l-7.606-7.81V170.833c.8-.648,1.6-1.313,2.365-2.016a46.346,46.346,0,0,0,15.1-34.05V124.3a45.253,45.253,0,0,0,4.366-19.4V62.229a4.038,4.038,0,0,0-4.083-3.991H120.013C98.5,58.238,81,75.342,81,96.365V104.9a45.253,45.253,0,0,0,4.366,19.4v9.009a48.316,48.316,0,0,0,17.464,37.218v13.42l-7.606,7.81a3.933,3.933,0,0,0-1.113,3.055L68.99,203.738a21.59,21.59,0,0,0-5.048,2.585L60,204.4c11.743-5,15.464-12.022,15.642-12.371a3.909,3.909,0,0,0,0-3.569c-2.944-5.754-3.3-16.3-3.587-24.775-.1-2.821-.186-5.486-.358-7.86C70.3,136.678,55.413,122.243,37.06,122.243S3.818,136.678,2.426,155.82c-.173,2.374-.263,5.039-.358,7.861-.286,8.474-.644,19.019-3.587,24.773a3.909,3.909,0,0,0,0,3.569c.179.349,3.891,7.361,15.658,12.363L3.181,209.741a16.669,16.669,0,0,0-9.5,15.02v29.483a4.038,4.038,0,0,0,4.083,3.991,4.038,4.038,0,0,0,4.083-3.991V224.761a8.745,8.745,0,0,1,4.983-7.88l13.645-6.668,4.746,4.408a17.462,17.462,0,0,0,23.671,0l4.746-4.408,4.449,2.174a20.666,20.666,0,0,0-3.284,11.142v30.715a4.084,4.084,0,0,0,8.167,0V223.53a13.136,13.136,0,0,1,8.808-12.29l26.488-9.413L109.3,217.992a8.451,8.451,0,0,0,6.2,3.637q.423.041.842.04a8.516,8.516,0,0,0,5.965-2.419l6.727-6.575v41.57a4.084,4.084,0,0,0,8.167,0v-41.57l6.727,6.575a8.512,8.512,0,0,0,5.965,2.419q.419,0,.842-.04a8.451,8.451,0,0,0,6.2-3.637l11.027-16.165,26.487,9.413a13.137,13.137,0,0,1,8.808,12.29v30.715a4.084,4.084,0,0,0,8.167,0V223.531a20.849,20.849,0,0,0-6.039-14.6l1.009-.281a22.735,22.735,0,0,0,3.8-1.341L220.609,217.5v36.75a4.084,4.084,0,0,0,8.167,0V217.5l10.353-10.118a9.847,9.847,0,0,0,1.737.674l16.864,4.709a8.88,8.88,0,0,1,6.538,8.472v33.014a4.084,4.084,0,0,0,8.167,0V221.233A16.925,16.925,0,0,0,259.974,205.085ZM54.241,198.049v-4.76a29.664,29.664,0,0,0,10.78-13.009,43.108,43.108,0,0,0,2.325,9.534C65.72,191.751,61.871,195.364,54.241,198.049ZM10.572,156.386a29.31,29.31,0,0,1,8.255-18.606,25.781,25.781,0,0,1,36.467,0,29.31,29.31,0,0,1,8.255,18.606c.161,2.223.249,4.814.342,7.557.008.236.016.475.025.712-4.443-6.69-11.3-11.619-20.169-14.4a52.356,52.356,0,0,0-15.531-2.405,4.128,4.128,0,0,0-2.826,1.219l-7.367,7.467a3.927,3.927,0,0,0,.105,5.643,4.151,4.151,0,0,0,5.774-.1l6.13-6.213c5.279.252,22.264,2.183,28.87,16.4a21.91,21.91,0,0,1-21.84,18.256c-12.193,0-22.112-9.695-22.112-21.611a4.038,4.038,0,0,0-4.083-3.991,4.148,4.148,0,0,0-.67.059c.012-.343.023-.687.035-1.027C10.323,161.2,10.411,158.609,10.572,156.386Zm-3.8,33.427A43.162,43.162,0,0,0,9.1,180.257a29.905,29.905,0,0,0,10.777,13v4.783C12.242,195.35,8.41,191.769,6.775,189.813Zm24.076,19.023-3.8-3.527a8.109,8.109,0,0,0,.993-3.9v-4.254a31.036,31.036,0,0,0,18.029,0v4.25a8.109,8.109,0,0,0,.993,3.9l-3.8,3.526A9.163,9.163,0,0,1,30.851,208.836Zm62.684-75.529v-9.9a3.917,3.917,0,0,0-.406-1.735,37.565,37.565,0,0,1-3.96-16.771V96.365c0-16.622,13.837-30.145,30.844-30.145h57.04V104.9a37.565,37.565,0,0,1-3.96,16.771,3.917,3.917,0,0,0-.406,1.735v11.363a37.911,37.911,0,0,1-12.517,28.226,40.417,40.417,0,0,1-3.135,2.594c-.024.016-.047.034-.07.05a39.9,39.9,0,0,1-26.5,7.726C109.758,172.053,93.535,154.458,93.535,133.306Zm36.405,48.022q1.615.1,3.213.1a48.181,48.181,0,0,0,22.07-5.286v7.29l-22.112,14.772L111,183.433v-7.449A46.775,46.775,0,0,0,129.941,181.328Zm-13.414,32.278a.287.287,0,0,1-.435-.043l-12.7-18.617,4.087-4.2,19.265,12.87Zm33.605-.042a.26.26,0,0,1-.207.122.255.255,0,0,1-.228-.079l-10.217-9.986,19.265-12.87,4.087,4.2Zm52.449-45.733v-7.461a3.913,3.913,0,0,0-.431-1.785l-2.522-4.93a12.9,12.9,0,0,1-1.412-5.848v-.238a17.569,17.569,0,0,1,17.746-17.344h35.21V146.8a17.114,17.114,0,0,1-1.873,7.757l-2.061,4.029a3.915,3.915,0,0,0-.431,1.785V168.9a21.206,21.206,0,0,1-6.715,15.511,22.228,22.228,0,0,1-16.081,6.09C212.193,190.159,202.58,179.987,202.58,167.831Zm21.184,30.652c.315.01.627.014.94.014a30.98,30.98,0,0,0,9-1.331v1.607a9.336,9.336,0,0,0,.3,2.326l-9.31,9.1-9.266-9.056a10.711,10.711,0,0,0,.253-2.371v-1.684A29.229,29.229,0,0,0,223.764,198.483Z"/>
    <path id="Path_199" data-name="Path 199" d="M250.888,224.652a4.038,4.038,0,0,0-4.083,3.991v25.6a4.084,4.084,0,0,0,8.167,0v-25.6A4.038,4.038,0,0,0,250.888,224.652Z"/>
    <path id="Path_200" data-name="Path 200" d="M15.231,229.927a4.038,4.038,0,0,0-4.083,3.991v20.327a4.084,4.084,0,0,0,8.167,0V233.917A4.038,4.038,0,0,0,15.231,229.927Z"/>
    <path id="Path_201" data-name="Path 201" d="M106.633,104.239a.265.265,0,0,1,.213-.27,131.95,131.95,0,0,1,26.528-1.266c12.733.828,21.956,3.952,27.412,9.285a4.15,4.15,0,0,0,5.774,0,3.927,3.927,0,0,0,0-5.643C151.116,91.251,118.8,94.137,105.628,96.078a8.253,8.253,0,0,0-7.162,8.162v9.194a4.084,4.084,0,0,0,8.167,0v-9.194Z"/>
    <path id="Path_202" data-name="Path 202" d="M85.086,233.186A4.038,4.038,0,0,0,81,237.177v17.068a4.084,4.084,0,0,0,8.167,0V237.177A4.038,4.038,0,0,0,85.086,233.186Z"/>
    <path id="Path_203" data-name="Path 203" d="M181.137,233.186a4.038,4.038,0,0,0-4.083,3.991v17.068a4.084,4.084,0,0,0,8.167,0V237.177A4.038,4.038,0,0,0,181.137,233.186Z"/>
  </g>
</svg>
