<svg xmlns="http://www.w3.org/2000/svg" width="41.313" height="200" viewBox="0 0 41.313 200">
  <g id="Vector_Smart_Object2" data-name="Vector Smart Object2" transform="translate(-35.113 0)">
    <path id="Path_105" data-name="Path 105" d="M40.574,79.053c.243-5.267,2.383-9.1,4.779-8.569l10.1,2.252V197.592a21.838,21.838,0,0,1-20.34-.213Z" fill="#3caf96"/>
    <g id="Path_106" data-name="Path 106" fill="#ff4682" stroke-miterlimit="10">
      <path d="M 72.87110900878906 198.6825714111328 L 44.4336051940918 198.6825714111328 C 44.13284301757813 198.6825714111328 43.59323883056641 198.2080383300781 43.11918640136719 197.1661987304688 C 42.53271102905273 195.8772583007813 42.19634246826172 194.0625915527344 42.19634246826172 192.1875152587891 L 42.19634246826172 78.12499237060547 C 42.19634246826172 76.24990844726563 42.53271102905273 74.43524932861328 43.11918640136719 73.14630126953125 C 43.59323883056641 72.10446166992188 44.13284301757813 71.62993621826172 44.4336051940918 71.62993621826172 L 53.32031631469727 71.62993621826172 C 57.66513442993164 71.62993621826172 61.6616325378418 68.10527801513672 64.57366180419922 61.70522689819336 C 67.33550262451172 55.63525009155273 68.85649871826172 47.59393692016602 68.85649871826172 39.06251525878906 C 68.85649871826172 33.66143417358398 67.89008331298828 28.56296157836914 66.13526153564453 24.70627784729004 C 64.23023986816406 20.5195140838623 61.57265853881836 18.21375274658203 58.65208053588867 18.21375274658203 C 58.58576583862305 18.21375274658203 58.51847457885742 18.21498870849609 58.45213317871094 18.21740913391113 C 55.57113265991211 18.32319831848145 52.95965957641602 20.72551536560059 51.09865951538086 24.98183059692383 C 49.38947677612305 28.89096260070801 48.44818496704102 34.00575256347656 48.44818496704102 39.38398742675781 L 48.44818496704102 46.8749885559082 C 48.44818496704102 49.26946258544922 48.03668594360352 51.50880432128906 47.28947448730469 53.18051528930664 C 46.71039581298828 54.47606658935547 45.96852874755859 55.29677963256836 45.35337066650391 55.32235717773438 C 45.34397506713867 55.32275009155273 45.33473968505859 55.32293701171875 45.32558059692383 55.32293701171875 C 44.73339462280273 55.32293701171875 43.97249984741211 54.46809387207031 43.38716125488281 53.14511871337891 C 42.63039779663086 51.43470001220703 42.19634246826172 49.06917190551758 42.19634246826172 46.65506744384766 L 42.19634246826172 39.55272674560547 C 42.19634246826172 34.36383056640625 42.65226364135742 29.31717300415039 43.55142211914063 24.55298805236816 C 44.41776657104492 19.96269989013672 45.65457916259766 15.83827781677246 47.22747421264648 12.29430484771729 C 48.77642440795898 8.804304122924805 50.56402969360352 6.070567607879639 52.54060745239258 4.1690673828125 C 54.47210693359375 2.310935974121094 56.49029159545898 1.35185706615448 58.53910827636719 1.318462371826172 C 58.57660675048828 1.317830801010132 58.61494827270508 1.317541241645813 58.65239715576172 1.317541241645813 C 60.70834350585938 1.317541241645813 62.73423767089844 2.231699228286743 64.67382049560547 4.03462028503418 C 66.66218566894531 5.882936000823975 68.46126556396484 8.558330535888672 70.02108001708984 11.98651504516602 C 71.61023712158203 15.47919940948486 72.85992431640625 19.55685615539551 73.73542022705078 24.10627746582031 C 74.64642333984375 28.84025192260742 75.10834503173828 33.87225341796875 75.10834503173828 39.06251525878906 L 75.10834503173828 78.12499237060547 L 75.10834503173828 185.15625 L 75.10834503173828 192.1875152587891 C 75.10834503173828 194.0625915527344 74.77197265625 195.8772583007813 74.18550109863281 197.1661987304688 C 73.71147155761719 198.2080383300781 73.17186737060547 198.6825714111328 72.87110900878906 198.6825714111328 Z" stroke="none"/>
      <path d="M 58.65237426757813 2.634994506835938 C 58.62187576293945 2.634994506835938 58.59062576293945 2.635238647460938 58.56056213378906 2.6357421875 C 54.97256088256836 2.694244384765625 51.28071594238281 6.409439086914063 48.43165588378906 12.82875061035156 C 46.89994049072266 16.27996826171875 45.69356536865234 20.30677795410156 44.84603118896484 24.79730224609375 C 43.96202850341797 29.48115539550781 43.51380920410156 34.44561767578125 43.51380920410156 39.55274963378906 L 43.51380920410156 46.65505981445313 C 43.51380920410156 48.58633422851563 43.80549621582031 50.4716796875 44.33515930175781 51.96377563476563 C 44.70400238037109 53.00289916992188 45.09519958496094 53.58535766601563 45.342041015625 53.86044311523438 C 45.58080291748047 53.60231018066406 45.95697021484375 53.05718994140625 46.31362152099609 52.08120727539063 C 46.84053039550781 50.63937377929688 47.13072204589844 48.79043579101563 47.13072204589844 46.875 L 47.13072204589844 39.38400268554688 C 47.13072204589844 33.828125 48.11119079589844 28.52589416503906 49.89156341552734 24.45402526855469 C 51.96637725830078 19.70864868164063 54.98937606811523 17.02621459960938 58.40472030639648 16.90077209472656 C 58.48725128173828 16.89781188964844 58.57046890258789 16.89627075195313 58.65209197998047 16.89627075195313 C 62.11949920654297 16.89627075195313 65.20294189453125 19.47611999511719 67.33441162109375 24.16061401367188 C 69.16552734375 28.18496704101563 70.17396545410156 33.47721862792969 70.17396545410156 39.0625 C 70.17396545410156 47.77812194824219 68.61093902587891 56.01321411132813 65.77281188964844 62.25086975097656 C 62.63434219360352 69.14862060546875 58.21193695068359 72.94740295410156 53.3203125 72.94740295410156 L 44.75475311279297 72.94740295410156 C 44.34276580810547 73.43796539306641 43.51380920410156 75.19242858886719 43.51380920410156 78.12499237060547 L 43.51380920410156 192.1875 C 43.51380920410156 195.1200561523438 44.34276580810547 196.8745269775391 44.75475311279297 197.3650817871094 L 72.54993438720703 197.3650817871094 C 72.9619140625 196.8745269775391 73.79087829589844 195.1200561523438 73.79087829589844 192.1875 L 73.79087829589844 185.15625 L 73.79087829589844 78.12499237060547 L 73.79087829589844 39.0625 C 73.79087829589844 33.95558166503906 73.33693695068359 29.00733947753906 72.44168853759766 24.35520935058594 C 71.58584594726563 19.907958984375 70.36799621582031 15.93008422851563 68.82190704345703 12.53211975097656 C 65.96006774902344 6.24237060546875 62.2534065246582 2.634994506835938 58.65237426757813 2.634994506835938 M 58.65238189697266 9.1552734375e-05 C 68.46878051757813 9.1552734375e-05 76.42578125 17.48809814453125 76.42578125 39.0625 L 76.42578125 78.12499237060547 L 76.42578125 185.15625 L 76.42578125 192.1875 C 76.42578125 196.5023345947266 74.83434295654297 200 72.87109375 200 L 44.43359375 200 C 42.47034454345703 200 40.87890625 196.5023345947266 40.87890625 192.1875 L 40.87890625 78.12499237060547 C 40.87890625 73.81015014648438 42.47034454345703 70.3125 44.43359375 70.3125 L 53.3203125 70.3125 C 61.17315673828125 70.3125 67.5390625 56.32150268554688 67.5390625 39.0625 C 67.5390625 28.27592468261719 63.56015014648438 19.53118896484375 58.65208053588867 19.53118896484375 C 58.60153579711914 19.53118896484375 58.55111312866211 19.5321044921875 58.50037384033203 19.53396606445313 C 53.62778091430664 19.71290588378906 49.765625 28.67343139648438 49.765625 39.38400268554688 L 49.765625 46.875 C 49.765625 52.20545959472656 47.82244110107422 56.53826904296875 45.40812683105469 56.63868713378906 C 45.38060760498047 56.63983154296875 45.35301971435547 56.64041137695313 45.32561492919922 56.64041137695313 C 42.87260437011719 56.64041137695313 40.87890625 52.06961059570313 40.87890625 46.65505981445313 L 40.87890625 39.55274963378906 C 40.87890625 18.01405334472656 48.71772003173828 0.1609344482421875 58.51762390136719 0.001190185546875 C 58.56224060058594 0.000457763671875 58.60784530639648 9.1552734375e-05 58.65238189697266 9.1552734375e-05 Z" stroke="none"/>
    </g>
    <g id="Path_107" data-name="Path 107" fill="#ffeb50" stroke-miterlimit="10">
      <path d="M 58.65234375 63.29047012329102 C 55.47578430175781 63.29047012329102 52.54228210449219 60.68807983398438 50.3922233581543 55.96266937255859 C 48.332275390625 51.43531036376953 47.19781494140625 45.43338012695313 47.19781494140625 39.0625 C 47.19781494140625 32.69161987304688 48.332275390625 26.68968963623047 50.3922233581543 22.16233062744141 C 52.54228210449219 17.43692016601563 55.47578430175781 14.83452987670898 58.65234375 14.83452987670898 C 61.82890319824219 14.83452987670898 64.76240539550781 17.43692016601563 66.91246032714844 22.16233062744141 C 68.972412109375 26.68968963623047 70.10687255859375 32.69161987304688 70.10687255859375 39.0625 C 70.10687255859375 45.43338012695313 68.972412109375 51.43531036376953 66.91246032714844 55.96266937255859 C 64.76240539550781 60.68807983398438 61.82890319824219 63.29047012329102 58.65234375 63.29047012329102 Z" stroke="none"/>
      <path d="M 58.65234375 15.625 C 52.76275634765625 15.625 47.98828125 26.11835861206055 47.98828125 39.0625 C 47.98828125 52.00663757324219 52.76275634765625 62.5 58.65234375 62.5 C 64.54192352294922 62.5 69.31640625 52.00663757324219 69.31640625 39.0625 C 69.31640625 26.11835861206055 64.54192352294922 15.625 58.65234375 15.625 M 58.65234375 14.04405212402344 C 62.15700531005859 14.04405212402344 65.34602355957031 16.81092071533203 67.63196563720703 21.8349609375 C 69.7376708984375 26.46290969848633 70.89735412597656 32.58110046386719 70.89735412597656 39.0625 C 70.89735412597656 45.54389953613281 69.7376708984375 51.66209030151367 67.63196563720703 56.2900390625 C 65.34602355957031 61.31407928466797 62.15700531005859 64.08094787597656 58.65234375 64.08094787597656 C 55.14768218994141 64.08094787597656 51.95866394042969 61.31407928466797 49.67272186279297 56.2900390625 C 47.56700134277344 51.66209030151367 46.40733337402344 45.54389953613281 46.40733337402344 39.0625 C 46.40733337402344 32.58110046386719 47.56700134277344 26.46290969848633 49.67272186279297 21.8349609375 C 51.95866394042969 16.81092071533203 55.14768218994141 14.04405212402344 58.65234375 14.04405212402344 Z" stroke="none"/>
    </g>
    <path id="Path_108" data-name="Path 108" d="M68.372,48.7c-1.673,8.133-5.394,13.8-9.719,13.8-5.89,0-10.664-10.493-10.664-23.437,0-9.506,2.576-17.684,6.277-21.361a48.15,48.15,0,0,0-.945,9.642c0,12.944,4.774,23.438,10.664,23.438A6.272,6.272,0,0,0,68.372,48.7Z" fill="#f7d139"/>
    <path id="Path_109" data-name="Path 109" d="M62.207,23.438c1.963,0,3.555,3.5,3.555,7.813s-1.591,7.813-3.555,7.813-3.555-3.5-3.555-7.812S60.244,23.438,62.207,23.438Z" fill="#ffff91"/>
    <path id="Path_110" data-name="Path 110" d="M46.211,113.281c0-15.1,5.57-27.344,12.441-27.344S71.094,98.18,71.094,113.281s-5.57,27.344-12.441,27.344S46.211,128.383,46.211,113.281Zm23.105,39.063H47.988c-.491,0-.889.875-.889,1.953v7.813c0,1.079.4,1.953.889,1.953H69.316c.491,0,.889-.875.889-1.953V154.3C70.205,153.218,69.807,152.344,69.316,152.344ZM66.65,171.875h-16c-.491,0-.889.875-.889,1.953v7.813c0,1.079.4,1.953.889,1.953h16c.491,0,.889-.875.889-1.953v-7.812C67.539,172.749,67.141,171.875,66.65,171.875Z" fill="#d72d73"/>
    <path id="Path_111" data-name="Path 111" d="M65.107,113.292l.829,3.33a.462.462,0,0,0,.083.182l1.515,1.821a.8.8,0,0,1,0,.8l-1.515,1.821a.462.462,0,0,0-.083.182l-.829,3.33c-.079.317-.286.317-.365,0l-.829-3.33a.462.462,0,0,0-.083-.182l-1.515-1.821a.8.8,0,0,1,0-.8l1.515-1.821a.462.462,0,0,0,.083-.182l.829-3.33C64.821,112.975,65.028,112.975,65.107,113.292Z" fill="#64326e"/>
    <path id="Path_112" data-name="Path 112" d="M65.263,101.981,63.252,104.4a.616.616,0,0,0-.11.241l-1.1,4.42c-.1.421-.38.421-.485,0l-1.1-4.42a.616.616,0,0,0-.11-.241l-2.011-2.417a1.059,1.059,0,0,1,0-1.065L60.348,98.5a.616.616,0,0,0,.11-.241l1.1-4.42c.1-.421.38-.421.485,0l1.1,4.42a.616.616,0,0,0,.11.241l2.011,2.417A1.059,1.059,0,0,1,65.263,101.981Zm-6.511,4.912a3.806,3.806,0,0,0-2.765-1.424c-3.436,0-6.221,6.121-6.221,13.672s2.785,13.672,6.221,13.672a3.8,3.8,0,0,0,2.765-1.425c-2.048-2.238-3.456-6.88-3.456-12.247S56.7,109.13,58.751,106.893Z" fill="#fff573"/>
  </g>
</svg>
