<svg xmlns="http://www.w3.org/2000/svg" xmlns:xlink="http://www.w3.org/1999/xlink" width="184.363" height="199.987" viewBox="0 0 184.363 199.987">
  <defs>
    <clipPath id="clip-path">
      <rect id="Rectangle_14" data-name="Rectangle 14" width="184.363" height="199.987" transform="translate(103.118 95.306)" fill="none"/>
    </clipPath>
  </defs>
  <g id="Vector_Smart_Object" data-name="Vector Smart Object" transform="translate(-103.118 -95.306)">
    <g id="Group_14" data-name="Group 14">
      <path id="Path_149" data-name="Path 149" d="M269.706,234.549H120.532c6.836,0,10.7-3.576,12.894-9.5C144.038,196.42,115.772,113,195.121,113s51.077,83.419,61.69,112.044c2.2,5.928,6.064,9.5,12.895,9.5Zm0,0" fill="#f7d360"/>
      <g id="Group_13" data-name="Group 13">
        <g id="Group_12" data-name="Group 12" clip-path="url(#clip-path)">
          <path id="Path_150" data-name="Path 150" d="M284.149,248.991a14.444,14.444,0,0,1-14.443,14.443H120.532a14.442,14.442,0,1,1,0-28.885H269.706a14.44,14.44,0,0,1,14.443,14.442Zm0,0" fill="#e58e13"/>
          <path id="Path_151" data-name="Path 151" d="M256.812,225.045H179.278a14.8,14.8,0,0,1-14.783-15.274c1.092-35.349-4.545-96.1,30.046-96.766-94.953.491-34.256,121.545-74.007,121.545H269.706c-6.831,0-10.7-3.576-12.895-9.5Zm0,0" fill="#e58e13"/>
        </g>
      </g>
      <path id="Path_152" data-name="Path 152" d="M284.149,248.991a14.444,14.444,0,0,1-14.443,14.443H162.267a14.442,14.442,0,0,1,0-28.885H269.706a14.44,14.44,0,0,1,14.443,14.442Zm0,0" fill="#f7d360"/>
      <path id="Path_153" data-name="Path 153" d="M224.006,263.434a28.887,28.887,0,1,1-57.774,0Zm0,0" fill="#e58e13"/>
      <path id="Path_154" data-name="Path 154" d="M222.608,272.344a28.954,28.954,0,0,1-19.765,18.934,28.913,28.913,0,0,1-14.734-9.666,5.713,5.713,0,0,1,4.486-9.268Zm0,0" fill="#f7d360"/>
      <path id="Path_155" data-name="Path 155" d="M209.8,114.106c.032-.365.044-.732.044-1.1a14.724,14.724,0,1,0-29.447,0c0,.372.011.74.043,1.1" fill="#e58e13"/>
      <path id="Path_156" data-name="Path 156" d="M269.706,231.577h-.012c-5.751,0-9-2.987-10.856-9.972-1.9-7.144-1.964-17.5-2.031-28.473-.081-13.289-.173-28.352-3.476-41.823a2.971,2.971,0,0,0-5.77,1.414c3.138,12.792,3.227,27.484,3.306,40.445.07,11.358.134,22.086,2.229,29.962a23.863,23.863,0,0,0,3.9,8.447H133.237a23.856,23.856,0,0,0,3.9-8.447c2.1-7.876,2.161-18.6,2.229-29.962.105-17.341.226-36.994,7.321-52.035,7.986-16.931,23.827-25.163,48.428-25.163,13.511,0,24.567,2.539,32.859,7.548a39.864,39.864,0,0,1,16.14,18.868A2.971,2.971,0,0,0,249.558,140a46.231,46.231,0,0,0-18.508-21.564,56.364,56.364,0,0,0-18.293-6.8,17.689,17.689,0,0,0-35.273,0A56.906,56.906,0,0,0,159.92,118a45.8,45.8,0,0,0-18.6,20.6c-7.653,16.227-7.778,36.577-7.887,54.533-.067,10.969-.13,21.329-2.031,28.473-1.858,6.985-5.105,9.969-10.856,9.972h-.012a17.415,17.415,0,0,0,0,34.829h18.8a2.97,2.97,0,1,0,0-5.94h-18.8a11.474,11.474,0,0,1,0-22.948H269.708a11.474,11.474,0,0,1,0,22.948H151.213a2.97,2.97,0,0,0,0,5.94h12.193a31.852,31.852,0,0,0,63.428,0h42.873a17.415,17.415,0,0,0,0-34.829ZM195.12,101.246a11.775,11.775,0,0,1,11.524,9.438,101.87,101.87,0,0,0-23.047,0,11.772,11.772,0,0,1,11.523-9.437Zm0,188.108a25.952,25.952,0,0,1-25.743-22.948h51.484a25.951,25.951,0,0,1-25.741,22.948Zm0,0"/>
      <path id="Path_157" data-name="Path 157" d="M242.81,113.947A38.516,38.516,0,0,1,253.354,124c6.97,9.39,10.5,21.12,10.5,34.865a2.971,2.971,0,1,0,5.941,0c0-18.923-6.462-31.483-11.883-38.686-5.957-7.916-11.97-11.292-12.223-11.432a2.971,2.971,0,0,0-2.882,5.2Zm0,0"/>
      <path id="Path_158" data-name="Path 158" d="M265.219,115.036c.478.312,11.706,7.848,11.706,26.808a2.97,2.97,0,0,0,5.94,0c0-22.362-13.853-31.436-14.443-31.811a2.97,2.97,0,0,0-3.2,5Zm0,0"/>
      <path id="Path_159" data-name="Path 159" d="M123.41,161.841a2.971,2.971,0,0,0,2.971-2.971c0-13.746,3.534-25.476,10.5-34.865a38.656,38.656,0,0,1,10.543-10.058,2.97,2.97,0,0,0-2.881-5.2c-.253.14-6.266,3.517-12.223,11.432-5.42,7.2-11.881,19.764-11.881,38.686a2.97,2.97,0,0,0,2.969,2.971Zm0,0"/>
      <path id="Path_160" data-name="Path 160" d="M110.343,144.813a2.969,2.969,0,0,0,2.969-2.969c0-18.944,11.211-26.485,11.706-26.806a2.97,2.97,0,0,0-3.2-5c-.589.375-14.443,9.448-14.443,31.81a2.97,2.97,0,0,0,2.971,2.969Zm0,0"/>
    </g>
  </g>
</svg>
