<svg xmlns="http://www.w3.org/2000/svg" width="187.488" height="199.989" viewBox="0 0 187.488 199.989">
  <g id="Vector_Smart_Object" data-name="Vector Smart Object" transform="translate(-6.25)">
    <g id="Group_8" data-name="Group 8">
      <path id="Path_79" data-name="Path 79" d="M10.156,143.15v45.121a7.871,7.871,0,0,0,7.885,7.812h89.649v-26.7a7.872,7.872,0,0,1,7.885-7.812h26.949V72.749a7.872,7.872,0,0,0-7.885-7.812H18.041a7.871,7.871,0,0,0-7.885,7.812v70.4Z" fill="#ffcf33"/>
      <path id="Path_80" data-name="Path 80" d="M107.69,169.382v26.7l34.834-34.512H115.574A7.871,7.871,0,0,0,107.69,169.382Z" fill="#fff0a8"/>
      <path id="Path_81" data-name="Path 81" d="M142.523,72.749V161.57h15.77a7.871,7.871,0,0,0,7.885-7.812V38.237a7.872,7.872,0,0,0-7.885-7.812H41.7a7.872,7.872,0,0,0-7.885,7.812v26.7H134.639A7.872,7.872,0,0,1,142.523,72.749Z" fill="#30b6c9"/>
      <path id="Path_82" data-name="Path 82" d="M166.178,38.237v96.815h15.77a7.871,7.871,0,0,0,7.885-7.812V11.718a7.871,7.871,0,0,0-7.885-7.812H65.35a7.872,7.872,0,0,0-7.885,7.812V30.425H158.293A7.871,7.871,0,0,1,166.178,38.237Z" fill="#fd4848"/>
    </g>
    <path id="Path_83" data-name="Path 83" d="M10.156,162.771a3.906,3.906,0,0,0,3.906-3.906v-.105a3.906,3.906,0,1,0-7.812,0v.105A3.906,3.906,0,0,0,10.156,162.771Z"/>
    <path id="Path_84" data-name="Path 84" d="M41.449,112.684H53.934a3.906,3.906,0,0,0,0-7.812H41.449a3.906,3.906,0,0,0,0,7.812Z"/>
    <path id="Path_85" data-name="Path 85" d="M65.492,104.872a3.906,3.906,0,0,0,0,7.812H65.6a3.906,3.906,0,0,0,0-7.812Z"/>
    <path id="Path_86" data-name="Path 86" d="M75.339,95.889a3.906,3.906,0,0,0-3.906-3.906H41.449a3.906,3.906,0,0,0,0,7.812H71.433A3.906,3.906,0,0,0,75.339,95.889Z"/>
    <path id="Path_87" data-name="Path 87" d="M41.449,133.034H62.3a3.906,3.906,0,0,0,0-7.812H41.449a3.906,3.906,0,0,0,0,7.812Z"/>
    <path id="Path_88" data-name="Path 88" d="M181.947,0H65.35A11.768,11.768,0,0,0,53.559,11.718v14.8H41.7A11.768,11.768,0,0,0,29.9,38.237V61.031H18.041A11.768,11.768,0,0,0,6.25,72.749v70.4a3.906,3.906,0,1,0,7.812,0v-70.4a3.948,3.948,0,0,1,3.979-3.906h116.6a3.947,3.947,0,0,1,3.979,3.906v84.915H115.574a11.768,11.768,0,0,0-11.791,11.718v22.794H18.041a3.948,3.948,0,0,1-3.979-3.906V170.087a3.906,3.906,0,1,0-7.812,0v18.183a11.768,11.768,0,0,0,11.791,11.718h89.667c.123,0,.245-.006.367-.018.078-.008.154-.021.23-.034.048-.008.1-.013.145-.022.09-.018.178-.041.266-.065.034-.009.068-.016.1-.026.089-.027.175-.059.261-.092.032-.012.065-.022.1-.036.082-.034.16-.072.239-.111.036-.018.072-.033.107-.052.073-.039.143-.082.212-.125.039-.024.079-.046.117-.071.066-.044.129-.093.193-.141.038-.029.078-.056.116-.086.068-.056.133-.116.2-.177.027-.025.056-.048.082-.074l.012-.012h0l33.679-33.368h14.162a11.768,11.768,0,0,0,11.791-11.718v-14.8h11.864a11.768,11.768,0,0,0,11.791-11.718V11.718A11.769,11.769,0,0,0,181.947,0ZM111.6,186.714V169.382a3.947,3.947,0,0,1,3.979-3.906h17.457Zm50.676-32.956a3.948,3.948,0,0,1-3.979,3.906H146.429V72.749a11.768,11.768,0,0,0-11.791-11.718H37.716V38.237A3.948,3.948,0,0,1,41.7,34.331h116.6a3.948,3.948,0,0,1,3.979,3.906V153.758Zm23.654-26.519a3.947,3.947,0,0,1-3.979,3.906H170.084V38.237a11.768,11.768,0,0,0-11.791-11.718H61.371v-14.8A3.947,3.947,0,0,1,65.35,7.812h116.6a3.947,3.947,0,0,1,3.979,3.906Z"/>
  </g>
</svg>
