<svg id="Vector_Smart_Object4" data-name="Vector Smart Object4" xmlns="http://www.w3.org/2000/svg" width="199.987" height="199.987" viewBox="0 0 199.987 199.987">
  <rect id="Rectangle_4" data-name="Rectangle 4" width="70.503" height="70.503" transform="translate(11.718 10.937)" fill="#f7d360"/>
  <rect id="Rectangle_5" data-name="Rectangle 5" width="70.503" height="70.503" transform="translate(118.645 10.937)" fill="#f7d360"/>
  <rect id="Rectangle_6" data-name="Rectangle 6" width="70.503" height="70.503" transform="translate(11.718 118.645)" fill="#f7d360"/>
  <rect id="Rectangle_7" data-name="Rectangle 7" width="72.749" height="66.011" transform="translate(118.645 120.695)" fill="#f7d360"/>
  <path id="Path_113" data-name="Path 113" d="M168.739,92.182H139.054a31.283,31.283,0,0,1-31.248-31.248V31.248A31.283,31.283,0,0,1,139.054,0h29.686a31.283,31.283,0,0,1,31.248,31.248V60.934A31.283,31.283,0,0,1,168.739,92.182ZM139.054,15.624A15.642,15.642,0,0,0,123.43,31.248V60.934a15.642,15.642,0,0,0,15.624,15.624h29.686a15.642,15.642,0,0,0,15.624-15.624V31.248a15.642,15.642,0,0,0-15.624-15.624Z"/>
  <path id="Path_114" data-name="Path 114" d="M60.934,92.182H31.248A31.283,31.283,0,0,1,0,60.934V31.248A31.283,31.283,0,0,1,31.248,0H60.934A31.283,31.283,0,0,1,92.182,31.248V60.934A31.283,31.283,0,0,1,60.934,92.182ZM31.248,15.624A15.642,15.642,0,0,0,15.624,31.248V60.934A15.642,15.642,0,0,0,31.248,76.558H60.934A15.642,15.642,0,0,0,76.558,60.934V31.248A15.642,15.642,0,0,0,60.934,15.624Z"/>
  <path id="Path_115" data-name="Path 115" d="M60.934,199.987H31.248A31.283,31.283,0,0,1,0,168.739V139.054a31.283,31.283,0,0,1,31.248-31.248H60.934a31.283,31.283,0,0,1,31.248,31.248v29.686A31.283,31.283,0,0,1,60.934,199.987ZM31.248,123.43a15.642,15.642,0,0,0-15.624,15.624v29.686a15.642,15.642,0,0,0,15.624,15.624H60.934a15.642,15.642,0,0,0,15.624-15.624V139.054A15.642,15.642,0,0,0,60.934,123.43Z"/>
  <path id="Path_116" data-name="Path 116" d="M168.739,199.987H139.054a31.283,31.283,0,0,1-31.248-31.248V139.054a31.283,31.283,0,0,1,31.248-31.248h29.686a31.259,31.259,0,0,1,28.641,18.737,7.812,7.812,0,1,1-14.315,6.26,15.635,15.635,0,0,0-14.325-9.373H139.054a15.642,15.642,0,0,0-15.624,15.624v29.686a15.642,15.642,0,0,0,15.624,15.624h29.686a15.642,15.642,0,0,0,15.624-15.624,7.812,7.812,0,1,1,15.624,0A31.283,31.283,0,0,1,168.739,199.987Z"/>
</svg>
