<svg xmlns="http://www.w3.org/2000/svg" width="227.436" height="227.437" viewBox="0 0 227.436 227.437">
  <g id="Vector_Smart_Object1" data-name="Vector Smart Object1" transform="matrix(0.707, -0.707, 0.707, 0.707, -27.694, 113.718)">
    <circle id="Ellipse_1" data-name="Ellipse 1" cx="57.627" cy="57.627" r="57.627" transform="translate(42.729 3.237)" fill="#f7d360"/>
    <path id="Path_13" data-name="Path 13" d="M115.549,118.428H85.165a7.928,7.928,0,0,0-7.928,7.928h0a7.928,7.928,0,0,0,7.928,7.928h30.384a7.928,7.928,0,0,0,7.928-7.928h0A7.928,7.928,0,0,0,115.549,118.428Z" fill="#f7d360"/>
    <path id="Path_14" data-name="Path 14" d="M88.839,126.356h0a7.928,7.928,0,0,1,7.928-7.929h-11.6a7.928,7.928,0,0,0-7.928,7.928h0a7.928,7.928,0,0,0,7.928,7.928h11.6A7.927,7.927,0,0,1,88.839,126.356Z" fill="#e58e13"/>
    <path id="Path_15" data-name="Path 15" d="M100.357,196.822h0a11.391,11.391,0,0,1-11.391-11.391V145.675a11.391,11.391,0,0,1,11.391-11.391h0a11.391,11.391,0,0,1,11.391,11.391v39.756A11.391,11.391,0,0,1,100.357,196.822Z" fill="#f7d360"/>
    <path id="Path_16" data-name="Path 16" d="M95.648,185.431V145.674a11.4,11.4,0,0,1,8.05-10.892,11.393,11.393,0,0,0-3.341-.5h0a11.391,11.391,0,0,0-11.391,11.391v39.757a11.391,11.391,0,0,0,11.391,11.391h0a11.4,11.4,0,0,0,3.341-.5A11.4,11.4,0,0,1,95.648,185.431Z" fill="#e58e13"/>
    <circle id="Ellipse_2" data-name="Ellipse 2" cx="42.247" cy="42.247" r="42.247" transform="translate(58.11 18.617)" fill="#a0dbfd"/>
    <path id="Path_17" data-name="Path 17" d="M128.51,60.866a42.255,42.255,0,0,1-35.2,41.657,42.245,42.245,0,1,0,0-83.313A42.253,42.253,0,0,1,128.51,60.866Z" fill="#c1e9fd"/>
    <path id="Path_18" data-name="Path 18" d="M99.994,15.381a45.448,45.448,0,1,0,45.447,45.448A45.5,45.5,0,0,0,99.994,15.381Zm0,84.49a39.043,39.043,0,1,1,39.043-39.042A39.087,39.087,0,0,1,99.994,99.871Z"/>
    <path id="Path_19" data-name="Path 19" d="M160.822,60.829a60.3,60.3,0,0,0-12.289-36.667,3.2,3.2,0,0,0-5.108,3.865,53.938,53.938,0,0,1,10.992,32.8,54.419,54.419,0,1,1-19.043-41.356,3.2,3.2,0,0,0,4.166-4.865A60.829,60.829,0,1,0,77.979,117.533,11.125,11.125,0,0,0,84.8,137.449h3.119a14.51,14.51,0,0,0-2.521,8.189v8.875a3.2,3.2,0,1,0,6.4,0v-8.875a8.189,8.189,0,1,1,16.377,0v39.756a8.189,8.189,0,0,1-16.377,0V166.041a3.2,3.2,0,0,0-6.4,0v19.353a14.593,14.593,0,0,0,29.186,0V145.638a14.51,14.51,0,0,0-2.521-8.189h3.119a11.124,11.124,0,0,0,6.821-19.917A60.926,60.926,0,0,0,160.822,60.829Zm-45.636,70.216H84.8a4.726,4.726,0,1,1,0-9.452h30.384a4.726,4.726,0,0,1,0,9.452Z"/>
  </g>
</svg>
