<svg xmlns="http://www.w3.org/2000/svg" xmlns:xlink="http://www.w3.org/1999/xlink" width="207.026" height="200" viewBox="0 0 207.026 200">
  <defs>
    <clipPath id="clip-path">
      <rect id="Rectangle_17" data-name="Rectangle 17" width="102.829" height="102.829" transform="translate(139.582 125.473)" fill="none"/>
    </clipPath>
  </defs>
  <g id="Vector_Smart_Object7" data-name="Vector Smart Object7" transform="translate(-87.125 -92.791)">
    <path id="Path_204" data-name="Path 204" d="M117.729,96.026H264.922a27.44,27.44,0,0,1,27.513,27.365v105.02a27.44,27.44,0,0,1-27.513,27.365H194.077v34.2l-34.391-34.2H117.729a27.44,27.44,0,0,1-27.513-27.365V123.391a27.44,27.44,0,0,1,27.513-27.365Zm0,0" fill="#ffd664"/>
    <path id="Path_205" data-name="Path 205" d="M118.8,241.675a26.9,26.9,0,0,1-27-26.8v14.74a26.9,26.9,0,0,0,27,26.8h41.179l33.754,33.5V275.174l-29.8-29.573a13.547,13.547,0,0,0-9.547-3.926Zm0,0" fill="#f9c646"/>
    <path id="Path_206" data-name="Path 206" d="M87.125,227.468A31.859,31.859,0,0,0,118.95,259.29h38.789l32.026,32.03a5.026,5.026,0,0,0,8.578-3.553V259.29h63.984a31.859,31.859,0,0,0,31.825-31.822V124.616a31.862,31.862,0,0,0-31.825-31.825H211.283c-2.776,0-5.025.462-5.025,3.235s2.249,2.878,5.025,2.878h51.044c12.007,0,27.145,13.705,27.145,25.715V227.468c0,12.007-15.138,26.787-27.145,26.787H197.972a5.025,5.025,0,0,0-5.026,5.025V285.3l-29.574-29.578a5.026,5.026,0,0,0-3.554-1.472H118.95c-12.007,0-26.431-14.78-26.431-26.787V124.616c0-12.007,14.421-25.712,26.431-25.712h68.84c2.775,0,5.025-.1,5.025-2.878s-2.25-3.235-5.025-3.235H118.95a31.862,31.862,0,0,0-31.825,31.825Zm175.2-134.677"/>
    <g id="Group_22" data-name="Group 22">
      <path id="Path_207" data-name="Path 207" d="M237.56,209.148a10.043,10.043,0,1,1-14.2,14.2L196.5,194.177l11.839-11.837Zm0,0" fill="#2bbdc4"/>
      <path id="Path_208" data-name="Path 208" d="M202.427,176.913l5.912,5.427L196.5,194.177l-5.434-5.9Zm0,0" fill="#495d85"/>
      <path id="Path_209" data-name="Path 209" d="M239.559,139.783l-8.916,8.985h-5.681l-5.549-5.749v-5.682l8.784-8.914a18.085,18.085,0,0,0-22.9,22.906L188.228,168.4l-.014-.014-26.641-26.7V136l-14.2-8.522-5.68,5.68,8.521,14.2,5.679,0,26.643,26.7.011.013-17.006,17.006a18.087,18.087,0,0,0-22.907,22.9L151.547,205h5.682l5.749,5.75v5.681l-8.985,8.915A18.087,18.087,0,0,0,176.9,202.442c8.236-8.238,31.553-31.554,39.753-39.753a18.089,18.089,0,0,0,22.907-22.906Zm0,0" fill="#e9eef0"/>
      <path id="Path_210" data-name="Path 210" d="M209.341,156.633a2.008,2.008,0,1,0,2.008,2.007,2.008,2.008,0,0,0-2.008-2.007Zm0,0"/>
      <g id="Group_21" data-name="Group 21">
        <g id="Group_20" data-name="Group 20" clip-path="url(#clip-path)">
          <path id="Path_211" data-name="Path 211" d="M172.85,193.123a2.008,2.008,0,1,0,2.008,2.008,2.007,2.007,0,0,0-2.008-2.008Zm0,0"/>
          <path id="Path_212" data-name="Path 212" d="M240.012,137.828a2.008,2.008,0,0,0-1.88.541l-8.325,8.393h-3.992l-4.394-4.552v-4.047l8.206-8.33a2.009,2.009,0,0,0-.789-3.313,20.1,20.1,0,0,0-25.817,24.241l-14.794,14.793-24.647-24.7V136a2.009,2.009,0,0,0-.975-1.723l-14.2-8.521a2.006,2.006,0,0,0-2.453.3l-5.68,5.679a2.01,2.01,0,0,0-.3,2.454l8.52,14.2a2.009,2.009,0,0,0,1.722.976h4.846l24.649,24.7L164.97,188.812a20.1,20.1,0,0,0-24.241,25.817,2.009,2.009,0,0,0,3.329.774l8.326-8.392H156.4l4.573,4.572V215.6l-8.391,8.325a2.01,2.01,0,0,0,.774,3.33,20.1,20.1,0,0,0,25.817-24.241l11.836-11.836,2.711,2.945-1.245,1.244a2.009,2.009,0,0,0,2.841,2.841l1.126-1.127,25.439,27.632c.019.021.039.039.058.059a12.051,12.051,0,0,0,17.043-17.043c-.02-.02-.041-.04-.063-.06l-27.675-25.39,1.113-1.114a2.008,2.008,0,0,0-2.84-2.84l-1.235,1.236-2.951-2.708,11.894-11.893a20.095,20.095,0,0,0,24.238-25.815,2.008,2.008,0,0,0-1.449-1.315Zm-82.7,8.116a1.991,1.991,0,0,0-1.421-.569l-4.543,0-7.129-11.9,3.463-3.462,11.881,7.13v4.543a2.009,2.009,0,0,0,.587,1.418l25.237,25.293-2.84,2.84ZM208.4,185.12,236.169,210.6a8.034,8.034,0,0,1-11.363,11.361l-25.523-27.722Zm-2.962-2.718-8.878,8.874-2.711-2.945,8.638-8.639Zm16.989-20.78a16.043,16.043,0,0,1-5.133-.837,2.014,2.014,0,0,0-2.062.484c-10.068,10.069-31.764,31.762-39.752,39.752a2.008,2.008,0,0,0-.483,2.061,16.083,16.083,0,0,1-15.23,21.2,16.563,16.563,0,0,1-1.751-.094l6.379-6.33a2,2,0,0,0,.594-1.426v-5.681a2.008,2.008,0,0,0-.588-1.421l-5.75-5.75a2.006,2.006,0,0,0-1.42-.588h-5.682a2.017,2.017,0,0,0-1.427.593l-6.328,6.38a16.191,16.191,0,0,1-.095-1.751,16.083,16.083,0,0,1,21.2-15.23,2.008,2.008,0,0,0,2.061-.484c.111-.11,39.724-39.724,39.753-39.752a2.006,2.006,0,0,0,.483-2.06,16.082,16.082,0,0,1,15.229-21.2,16.41,16.41,0,0,1,1.8.1l-6.246,6.34a2.008,2.008,0,0,0-.577,1.409v5.682a2.008,2.008,0,0,0,.563,1.394l5.549,5.75a2.007,2.007,0,0,0,1.446.613h5.681a2.008,2.008,0,0,0,1.426-.594l6.328-6.377a16.255,16.255,0,0,1,.094,1.751,16.084,16.084,0,0,1-16.066,16.066Zm0,0"/>
        </g>
      </g>
      <path id="Path_213" data-name="Path 213" d="M202.241,162.9l-25.133,25.133a2.008,2.008,0,0,0,2.841,2.839l25.132-25.132a2.008,2.008,0,0,0-2.84-2.84Zm0,0"/>
      <path id="Path_214" data-name="Path 214" d="M227.62,216.251a2.008,2.008,0,1,0,2.836-2.844l-18.1-18.045a2.008,2.008,0,1,0-2.836,2.844Zm0,0"/>
    </g>
  </g>
</svg>
