<svg xmlns="http://www.w3.org/2000/svg" width="209.153" height="200.009" viewBox="0 0 209.153 200.009">
  <g id="Vector_Smart_Object" data-name="Vector Smart Object" transform="translate(0 -4.572)">
    <path id="Path_228" data-name="Path 228" d="M37.013,7.523A16.937,16.937,0,0,0,26.736,29.338L83.594,184.063c5.025,13.684,20.19,21.012,33.862,15.955a26.224,26.224,0,1,0-25.531-45.031L37.013,7.523ZM104.192,164.08a12.084,12.084,0,1,1-7.179,15.509A12.085,12.085,0,0,1,104.192,164.08Z" fill="#2d5872"/>
    <path id="Path_229" data-name="Path 229" d="M132.7,165.667a26.349,26.349,0,0,0-32.453-15.181q-1.172.382-2.281.861a26.116,26.116,0,0,0-3.174,1.635q-.5.3-.99.63-.973.649-1.875,1.376L37.014,7.523h0c-.323.114-.639.239-.951.37-.093.039-.184.081-.277.122q-.335.148-.662.308c-.094.046-.187.093-.279.141q-.354.183-.7.382c-.058.033-.117.065-.174.1q-.442.263-.865.549l-.026.019c-.268.183-.528.374-.784.57l-.149.117q-.335.264-.655.544l-.12.1a16.962,16.962,0,0,0-1.444,1.45h0l57.4,154.626q.443-.356.9-.694a22.958,22.958,0,1,1,32.043,32.546A26.222,26.222,0,0,0,132.7,165.667Z" fill="#1d4859"/>
    <path id="Path_230" data-name="Path 230" d="M201.424,131.143H16.859a4.777,4.777,0,0,1-4.777-4.777V34.115a4.777,4.777,0,0,1,4.777-4.777H201.424a4.777,4.777,0,0,1,4.777,4.777v92.252A4.777,4.777,0,0,1,201.424,131.143Z" fill="#f7d360"/>
    <g id="Group_24" data-name="Group 24">
      <path id="Path_231" data-name="Path 231" d="M37.633,103.669c-8.311-.134-13.94-4.625-13.94-7.909,0-1.609,1.407-3.82,3.083-3.82,2.212,0,4.021,4.692,10.858,5.228V81.418C31.6,79.273,24.9,76.86,24.9,68.282c0-8.445,6.367-11.8,12.734-12.466V53.873a1.769,1.769,0,0,1,1.944-1.542c1.005,0,2.011.737,2.011,1.542v1.81c4.558.134,10.992,1.542,10.992,4.826,0,1.273-.938,3.82-2.949,3.82-1.608,0-3.351-2.145-8.043-2.48V75.454c5.831,2.145,12.2,5.094,12.2,14.208,0,8.244-4.96,12.8-12.2,13.806v2.279c0,.8-1.005,1.541-2.011,1.541a1.769,1.769,0,0,1-1.944-1.541v-2.078Zm.4-29.49v-12.2c-3.753.469-6.434,2.145-6.434,5.63C31.6,71.432,34.483,72.84,38.036,74.18Zm3.15,8.713V97.034c3.619-.67,5.9-2.815,5.9-6.635C47.083,86.177,44.469,84.3,41.185,82.893Z" fill="#fff"/>
      <path id="Path_232" data-name="Path 232" d="M120.125,66.4H104.956c-1.108,0-1.688,1.088-1.688,2.163,0,1.275.71,2.2,1.688,2.2h5.257V92.248c0,.994.964,1.688,2.346,1.688,1.166,0,2.346-.58,2.346-1.688V70.762h5.22c.994,0,1.688-.92,1.688-2.237C121.812,67.5,121.284,66.4,120.125,66.4Z" fill="#fff"/>
      <path id="Path_233" data-name="Path 233" d="M144.012,67.775a2.839,2.839,0,0,0-2.873-1.6,2.805,2.805,0,0,0-2.839,1.6l-7.27,23.676a1.373,1.373,0,0,0-.058.458c0,1.189,1.487,2.017,2.821,2.017a1.6,1.6,0,0,0,1.745-1.1l1.413-4.895h8.414l1.416,4.9a1.614,1.614,0,0,0,1.706,1.091c1.349,0,2.857-.862,2.857-2.017a1.4,1.4,0,0,0-.091-.448Zm-5.984,16.242,3.111-10.669,3.111,10.669Z" fill="#fff"/>
      <path id="Path_234" data-name="Path 234" d="M181.4,90.762l-6.2-10.615L181.225,69.6a2.4,2.4,0,0,0,.344-1.149c0-1.275-1.487-2.163-2.821-2.163a2.019,2.019,0,0,0-1.821,1.309l-4.757,8.7L167.485,67.6a2.061,2.061,0,0,0-1.823-1.314c-1.352,0-2.857.888-2.857,2.163a2.408,2.408,0,0,0,.346,1.153l6.024,10.541-6.217,10.639a2.143,2.143,0,0,0-.263.95c0,1.279,1.583,2.309,2.894,2.309a1.925,1.925,0,0,0,1.6-1.089l4.981-9.075,5.042,9.061a1.85,1.85,0,0,0,1.572,1.1c1.355,0,2.931-1.009,2.931-2.309A2.243,2.243,0,0,0,181.4,90.762Z" fill="#fff"/>
    </g>
    <path id="Path_235" data-name="Path 235" d="M201.424,29.338H187.85v88.916a4.777,4.777,0,0,1-4.777,4.777H12.082v3.336a4.777,4.777,0,0,0,4.777,4.777H201.424a4.777,4.777,0,0,0,4.777-4.777V34.115A4.777,4.777,0,0,0,201.424,29.338Z" fill="#e5bf55"/>
    <path id="Path_236" data-name="Path 236" d="M100.537,7.523,45.625,154.988a26.223,26.223,0,1,0-25.531,45.031c13.672,5.057,28.838-2.271,33.862-15.955L110.814,29.338A16.937,16.937,0,0,0,100.537,7.523Zm-60,172.066a12.084,12.084,0,1,1-7.179-15.509A12.084,12.084,0,0,1,40.537,179.589Z" fill="#2d5872"/>
    <path id="Path_237" data-name="Path 237" d="M102.037,8.135a16.9,16.9,0,0,1,1.5,14.753L46.681,177.612c-5.025,13.684-20.19,21.012-33.862,15.955a26.317,26.317,0,0,1-4.367-2.1,26.1,26.1,0,0,0,11.643,8.547c13.672,5.057,28.838-2.271,33.862-15.955L110.814,29.338A16.938,16.938,0,0,0,102.037,8.135Z" fill="#1d4859"/>
    <path id="Path_238" data-name="Path 238" d="M34.375,161.31a15.036,15.036,0,1,0,8.463,7.8A15.052,15.052,0,0,0,34.375,161.31Zm3.391,17.262a9.134,9.134,0,1,1-.286-6.985A9.145,9.145,0,0,1,37.766,178.572Z"/>
    <path id="Path_239" data-name="Path 239" d="M206.2,101.589a2.951,2.951,0,0,0,2.951-2.951V34.115a7.736,7.736,0,0,0-7.728-7.728H114.6A19.9,19.9,0,0,0,101.516,4.74a2.951,2.951,0,0,0-3.745,1.754L90.363,26.387H47.187L39.779,6.494a2.952,2.952,0,0,0-3.745-1.754A19.9,19.9,0,0,0,22.952,26.387H16.859a7.737,7.737,0,0,0-7.728,7.728v92.252a7.736,7.736,0,0,0,7.728,7.728h33.4l-6.07,16.3A29.175,29.175,0,1,0,19.07,202.787a28.7,28.7,0,0,0,9.969,1.793,29.067,29.067,0,0,0,12.2-2.706,29.608,29.608,0,0,0,15.49-16.793l12.048-32.787,12.048,32.786a29.609,29.609,0,0,0,15.49,16.793,29.07,29.07,0,0,0,12.2,2.706,29.156,29.156,0,0,0,26.928-40.008A29.177,29.177,0,0,0,93.363,150.4l-6.07-16.3H201.424a7.737,7.737,0,0,0,7.728-7.728v-8.939a2.951,2.951,0,0,0-5.9,0v8.939a1.827,1.827,0,0,1-1.825,1.825H77.632l35.242-95.9h88.55a1.827,1.827,0,0,1,1.825,1.825V98.638A2.951,2.951,0,0,0,206.2,101.589ZM29.983,17.54a13.879,13.879,0,0,1,5.38-5.991l5.526,14.839H28.947A13.871,13.871,0,0,1,29.983,17.54ZM16.859,128.192a1.827,1.827,0,0,1-1.825-1.825V34.115a1.827,1.827,0,0,1,1.825-1.825h47.4v7.863a2.951,2.951,0,0,0,5.9,0V32.29h18l-18,48.34V58.706a2.951,2.951,0,0,0-5.9,0V96.481L52.454,128.192H16.859ZM81,134.095l8.163,21.923a2.951,2.951,0,0,0,4.615,1.27,23.272,23.272,0,1,1,22.658,39.962,22.89,22.89,0,0,1-17.646-.736,23.746,23.746,0,0,1-12.423-13.469L71.919,143.738l3.544-9.643H81ZM108.044,28.32,51.186,183.046a23.745,23.745,0,0,1-12.423,13.469A23.194,23.194,0,0,1,7.592,166.763a23.27,23.27,0,0,1,36.184-9.475,2.951,2.951,0,0,0,4.615-1.27l8.879-23.843h0L102.187,11.548a14,14,0,0,1,5.857,16.772Z"/>
    <path id="Path_240" data-name="Path 240" d="M108.372,190.46a15.036,15.036,0,1,0-14.13-9.854A14.96,14.96,0,0,0,108.372,190.46Zm-3.163-23.61a9.133,9.133,0,1,1-5.426,11.721A9.1,9.1,0,0,1,105.209,166.85Z"/>
  </g>
</svg>
