<svg xmlns="http://www.w3.org/2000/svg" width="144.066" height="199.987" viewBox="0 0 144.066 199.987">
  <g id="Vector_Smart_Object8_copy_4" data-name="Vector Smart Object8 copy 4" transform="translate(-188.009 -160.406)">
    <g id="Group_23" data-name="Group 23">
      <path id="Path_215" data-name="Path 215" d="M320.971,357.464H199.112a8.175,8.175,0,0,1-8.174-8.176V199.247a8.175,8.175,0,0,1,8.174-8.176H320.971a8.175,8.175,0,0,1,8.174,8.176V349.288a8.175,8.175,0,0,1-8.174,8.176Zm0,0" fill="#ddeafb"/>
      <path id="Path_216" data-name="Path 216" d="M320.971,191.071h-7.686V349.288a8.174,8.174,0,0,1-8.174,8.176h15.86a8.175,8.175,0,0,0,8.174-8.176V199.247a8.175,8.175,0,0,0-8.174-8.176Zm0,0" fill="#cbe2ff"/>
      <path id="Path_217" data-name="Path 217" d="M271.573,179.119v-4.252a11.531,11.531,0,0,0-23.062,0v4.252a4.262,4.262,0,0,1-4.26,4.262h-15.9a4.26,4.26,0,0,0-4.262,4.26v7.48a4.262,4.262,0,0,0,4.262,4.262h63.375a4.26,4.26,0,0,0,4.26-4.262v-7.48a4.26,4.26,0,0,0-4.26-4.262h-15.9a4.26,4.26,0,0,1-4.26-4.26Zm0,0" fill="#f1d333"/>
      <path id="Path_218" data-name="Path 218" d="M255.713,168.147v10.972a4.26,4.26,0,0,0,4.26,4.26h15.86a4.26,4.26,0,0,1-4.26-4.26v-4.252a11.53,11.53,0,0,0-17.2-10.042,4.791,4.791,0,0,1,1.337,3.322Zm0,0" fill="#e2bf2b"/>
      <path id="Path_219" data-name="Path 219" d="M291.729,183.38h-11.6v11.74a4.26,4.26,0,0,1-4.26,4.262h15.86a4.26,4.26,0,0,0,4.26-4.262v-7.48a4.258,4.258,0,0,0-4.26-4.26Zm0,0" fill="#e2bf2b"/>
      <path id="Path_220" data-name="Path 220" d="M310.429,234.189H247.321a2.929,2.929,0,0,1,0-5.859h63.108a2.929,2.929,0,1,1,0,5.859Zm0,0"/>
      <path id="Path_221" data-name="Path 221" d="M310.429,250.346H247.321a2.93,2.93,0,0,1,0-5.859h63.108a2.93,2.93,0,0,1,0,5.859Zm0,0"/>
      <path id="Path_222" data-name="Path 222" d="M310.429,275.526H247.321a2.93,2.93,0,0,1,0-5.859h63.108a2.93,2.93,0,1,1,0,5.859Zm0,0"/>
      <path id="Path_223" data-name="Path 223" d="M310.429,291.684H247.321a2.93,2.93,0,0,1,0-5.859h63.108a2.93,2.93,0,0,1,0,5.859Zm0,0"/>
      <path id="Path_224" data-name="Path 224" d="M310.429,316.864H247.321a2.93,2.93,0,0,1,0-5.859h63.108a2.93,2.93,0,1,1,0,5.859Zm0,0"/>
      <path id="Path_225" data-name="Path 225" d="M310.429,333.021H247.321a2.929,2.929,0,1,1,0-5.859h63.108a2.929,2.929,0,1,1,0,5.859Zm0,0"/>
      <path id="Path_226" data-name="Path 226" d="M291.729,202.31H228.354a7.2,7.2,0,0,1-7.191-7.19v-7.48a7.2,7.2,0,0,1,7.191-7.192h15.895a1.332,1.332,0,0,0,1.332-1.33v-4.252a14.461,14.461,0,0,1,28.921,0v4.252a1.334,1.334,0,0,0,1.33,1.332h15.9a7.2,7.2,0,0,1,7.189,7.19v7.48a7.2,7.2,0,0,1-7.189,7.19Zm-63.375-16a1.334,1.334,0,0,0-1.332,1.333v7.48a1.333,1.333,0,0,0,1.332,1.331h63.375a1.331,1.331,0,0,0,1.33-1.331v-7.48a1.333,1.333,0,0,0-1.33-1.333h-15.9a7.2,7.2,0,0,1-7.189-7.189v-4.252a8.6,8.6,0,1,0-17.2,0v4.252a7.2,7.2,0,0,1-7.189,7.191h-15.9Zm0,0"/>
      <path id="Path_227" data-name="Path 227" d="M320.971,360.394H199.112a11.118,11.118,0,0,1-11.1-11.106V199.247a11.118,11.118,0,0,1,11.1-11.106h11.269a2.93,2.93,0,0,1,0,5.859H199.112a5.252,5.252,0,0,0-5.244,5.247V349.288a5.252,5.252,0,0,0,5.244,5.247H320.971a5.252,5.252,0,0,0,5.244-5.247V199.247A5.252,5.252,0,0,0,320.971,194H309.691a2.93,2.93,0,0,1,0-5.859h11.281a11.118,11.118,0,0,1,11.1,11.106V349.288a11.118,11.118,0,0,1-11.1,11.106Zm0,0"/>
    </g>
    <rect id="Rectangle_18" data-name="Rectangle 18" width="16.349" height="17.186" rx="4.018" transform="translate(212.654 230.566)" fill="#f7d360"/>
    <rect id="Rectangle_19" data-name="Rectangle 19" width="16.349" height="17.186" rx="4.018" transform="translate(212.654 272.048)" fill="#f7d360"/>
    <rect id="Rectangle_20" data-name="Rectangle 20" width="16.349" height="17.186" rx="4.018" transform="translate(212.654 312.905)" fill="#f7d360"/>
    <g id="Rectangle_21" data-name="Rectangle 21" transform="translate(208.794 227.278)" fill="none" stroke="#000" stroke-miterlimit="10" stroke-width="4.166">
      <rect width="24.065" height="24.065" rx="12.032" stroke="none"/>
      <rect x="2.083" y="2.083" width="19.898" height="19.898" rx="9.949" fill="none"/>
    </g>
    <g id="Rectangle_22" data-name="Rectangle 22" transform="translate(208.794 268.609)" fill="none" stroke="#000" stroke-miterlimit="10" stroke-width="4.166">
      <rect width="24.065" height="24.065" rx="12.032" stroke="none"/>
      <rect x="2.083" y="2.083" width="19.898" height="19.898" rx="9.949" fill="none"/>
    </g>
    <g id="Rectangle_23" data-name="Rectangle 23" transform="translate(208.794 309.94)" fill="none" stroke="#000" stroke-miterlimit="10" stroke-width="4.166">
      <rect width="24.065" height="24.065" rx="12.032" stroke="none"/>
      <rect x="2.083" y="2.083" width="19.898" height="19.898" rx="9.949" fill="none"/>
    </g>
  </g>
</svg>
